<?xml version="1.0" encoding="UTF-8" standalone="no"?>
<svg
   xmlns:dc="http://purl.org/dc/elements/1.1/"
   xmlns:cc="http://creativecommons.org/ns#"
   xmlns:rdf="http://www.w3.org/1999/02/22-rdf-syntax-ns#"
   xmlns:svg="http://www.w3.org/2000/svg"
   xmlns="http://www.w3.org/2000/svg"
   xmlns:sodipodi="http://sodipodi.sourceforge.net/DTD/sodipodi-0.dtd"
   xmlns:inkscape="http://www.inkscape.org/namespaces/inkscape"
   style="font-style:normal;font-weight:normal;font-size:12px;font-family:Dialog;color-interpolation:auto;fill:#000000;fill-opacity:1;stroke:#000000;stroke-width:1;stroke-linecap:square;stroke-linejoin:miter;stroke-miterlimit:10;stroke-dasharray:none;stroke-dashoffset:0;stroke-opacity:1;color-rendering:auto;image-rendering:auto;shape-rendering:auto;text-rendering:auto"
   width="1177.5908"
   height="505"
   id="svg2"
   version="1.1"
   inkscape:version="0.91 r13725"
   sodipodi:docname="statechart.svg">
  <metadata
     id="metadata258">
    <rdf:RDF>
      <cc:Work
         rdf:about="">
        <dc:format>image/svg+xml</dc:format>
        <dc:type
           rdf:resource="http://purl.org/dc/dcmitype/StillImage" />
        <dc:title></dc:title>
      </cc:Work>
    </rdf:RDF>
  </metadata>
  <sodipodi:namedview
     pagecolor="#ffffff"
     bordercolor="#666666"
     borderopacity="1"
     objecttolerance="10"
     gridtolerance="10"
     guidetolerance="10"
     inkscape:pageopacity="0"
     inkscape:pageshadow="2"
     inkscape:window-width="1366"
     inkscape:window-height="602"
     id="namedview256"
     showgrid="false"
     fit-margin-top="0"
     fit-margin-left="0"
     fit-margin-right="0"
     fit-margin-bottom="0"
     inkscape:zoom="0.71706603"
     inkscape:cx="418.19699"
     inkscape:cy="272.81099"
     inkscape:window-x="0"
     inkscape:window-y="27"
     inkscape:window-maximized="0"
     inkscape:current-layer="svg2" />
  <!--Generated by the Batik Graphics2D SVG Generator-->
  <defs
     id="genericDefs" />
  <g
     id="g5"
     transform="translate(-100.40916,0)">
    <defs
       id="defs1">
      <clipPath
         clipPathUnits="userSpaceOnUse"
         id="clipPath1">
        <path
           d="m 0,0 1278,0 0,505 L 0,505 0,0 Z"
           id="path9"
           inkscape:connector-curvature="0" />
      </clipPath>
      <clipPath
         clipPathUnits="userSpaceOnUse"
         id="clipPath2">
        <path
           d="m -17.5523,-33.5 958.5,0 0,378.75 -958.5,0 0,-378.75 z"
           id="path12"
           inkscape:connector-curvature="0" />
      </clipPath>
      <clipPath
         clipPathUnits="userSpaceOnUse"
         id="clipPath3">
        <path
           d="m -160.887,-152.366 958.5,0 0,378.75 -958.5,0 0,-378.75 z"
           id="path15"
           inkscape:connector-curvature="0" />
      </clipPath>
      <clipPath
         clipPathUnits="userSpaceOnUse"
         id="clipPath4">
        <path
           d="m -452.387,-152.366 958.5,0 0,378.75 -958.5,0 0,-378.75 z"
           id="path18"
           inkscape:connector-curvature="0" />
      </clipPath>
      <clipPath
         clipPathUnits="userSpaceOnUse"
         id="clipPath5">
        <path
           d="m -300.386,-118.4095 958.5,0 0,378.75 -958.5,0 0,-378.75 z"
           id="path21"
           inkscape:connector-curvature="0" />
      </clipPath>
      <clipPath
         clipPathUnits="userSpaceOnUse"
         id="clipPath6">
        <path
           d="m -307.636,-223.4111 958.5,0 0,378.75 -958.5,0 0,-378.75 z"
           id="path24"
           inkscape:connector-curvature="0" />
      </clipPath>
      <clipPath
         clipPathUnits="userSpaceOnUse"
         id="clipPath7">
        <path
           d="m -665.387,-152.366 958.5,0 0,378.75 -958.5,0 0,-378.75 z"
           id="path27"
           inkscape:connector-curvature="0" />
      </clipPath>
      <clipPath
         clipPathUnits="userSpaceOnUse"
         id="clipPath8">
        <path
           d="m -886.387,-159.3503 958.5,0 0,378.75 -958.5,0 0,-378.75 z"
           id="path30"
           inkscape:connector-curvature="0" />
      </clipPath>
      <clipPath
         clipPathUnits="userSpaceOnUse"
         id="clipPath9">
        <path
           d="m -558.511,-144.4956 958.5,0 0,378.75 -958.5,0 0,-378.75 z"
           id="path33"
           inkscape:connector-curvature="0" />
      </clipPath>
      <clipPath
         clipPathUnits="userSpaceOnUse"
         id="clipPath10">
        <path
           d="m -427.0231,-290.558 958.5,0 0,378.75 -958.5,0 0,-378.75 z"
           id="path36"
           inkscape:connector-curvature="0" />
      </clipPath>
      <clipPath
         clipPathUnits="userSpaceOnUse"
         id="clipPath11">
        <path
           d="m -768.386,-126.5627 958.5,0 0,378.75 -958.5,0 0,-378.75 z"
           id="path39"
           inkscape:connector-curvature="0" />
      </clipPath>
      <clipPath
         clipPathUnits="userSpaceOnUse"
         id="clipPath12">
        <path
           d="m -672.387,-313.366 958.5,0 0,378.75 -958.5,0 0,-378.75 z"
           id="path42"
           inkscape:connector-curvature="0" />
      </clipPath>
      <clipPath
         clipPathUnits="userSpaceOnUse"
         id="clipPath13">
        <path
           d="m -721.1655,-252.4743 958.5001,0 0,378.75 -958.5001,0 0,-378.75 z"
           id="path45"
           inkscape:connector-curvature="0" />
      </clipPath>
      <clipPath
         clipPathUnits="userSpaceOnUse"
         id="clipPath14">
        <path
           d="m -323.429,-334.299 958.5,0 0,378.75 -958.5,0 0,-378.75 z"
           id="path48"
           inkscape:connector-curvature="0" />
      </clipPath>
      <clipPath
         clipPathUnits="userSpaceOnUse"
         id="clipPath15">
        <path
           d="m -768.761,-206.1216 958.5,0 0,378.75 -958.5,0 0,-378.75 z"
           id="path51"
           inkscape:connector-curvature="0" />
      </clipPath>
      <clipPath
         clipPathUnits="userSpaceOnUse"
         id="clipPath16">
        <path
           d="m -621.4706,-271.2243 958.5,0 0,378.75 -958.5,0 0,-378.75 z"
           id="path54"
           inkscape:connector-curvature="0" />
      </clipPath>
      <clipPath
         clipPathUnits="userSpaceOnUse"
         id="clipPath17">
        <path
           d="m -30.387,-50.366 958.5,0 0,378.75 -958.5,0 0,-378.75 z"
           id="path57"
           inkscape:connector-curvature="0" />
      </clipPath>
      <clipPath
         clipPathUnits="userSpaceOnUse"
         id="clipPath18">
        <path
           d="m -274.5523,-197 958.5,0 0,378.75 -958.5,0 0,-378.75 z"
           id="path60"
           inkscape:connector-curvature="0" />
      </clipPath>
    </defs>
    <g
       style="fill:#ffffff;stroke:#ffffff"
       id="g62">
      <rect
         x="100.40916"
         y="0"
         width="1177.5908"
         style="stroke:none"
         height="505"
         id="rect64"
         clip-path="url(#clipPath1)" />
    </g>
    <g
       style="fill:#ffffcc;stroke:#ffffcc;stroke-width:2;text-rendering:optimizeLegibility"
       transform="matrix(1.3333,0,0,1.3333,23.402482,44.66555)"
       id="g66">
      <circle
         r="41.834702"
         style="stroke:none"
         cx="170.8347"
         cy="132.8347"
         id="circle68"
         clip-path="url(#clipPath2)" />
      <circle
         style="fill:none;stroke:#000000"
         r="41.834702"
         cx="170.8347"
         cy="132.8347"
         id="circle70"
         clip-path="url(#clipPath2)" />
      <path
         d="m 4.9863,2.3887 1.1875,0 0,7.75 4.2657,0 0,1 -5.4532,0 0,-8.75 z m 9.1856,2.9375 q -0.8594,0 -1.3672,0.6797 -0.5078,0.6796 -0.5078,1.8515 0,1.1875 0.5,1.8594 0.5,0.6719 1.375,0.6719 0.8593,0 1.3672,-0.6797 0.5078,-0.6797 0.5078,-1.8516 0,-1.1562 -0.5078,-1.8437 -0.5079,-0.6875 -1.3672,-0.6875 z m 0,-0.9063 q 1.4062,0 2.2109,0.9141 0.8047,0.914 0.8047,2.5234 0,1.6094 -0.8047,2.5313 -0.8047,0.9218 -2.2109,0.9218 -1.4063,0 -2.211,-0.9218 -0.8047,-0.9219 -0.8047,-2.5313 0,-1.6094 0.8047,-2.5234 0.8047,-0.9141 2.211,-0.9141 z m 9.5293,0.4063 0,1.0156 q -0.4688,-0.2656 -0.9219,-0.3906 -0.4531,-0.125 -0.9219,-0.125 -1.0625,0 -1.6406,0.664 -0.5781,0.6641 -0.5781,1.8672 0,1.2031 0.5781,1.8672 0.5781,0.6641 1.6406,0.6641 0.4688,0 0.9219,-0.125 0.4531,-0.125 0.9219,-0.375 l 0,1 q -0.4532,0.2031 -0.9375,0.3125 -0.4844,0.1093 -1.0313,0.1093 -1.4844,0 -2.3594,-0.9296 -0.875,-0.9297 -0.875,-2.5235 0,-1.5937 0.8829,-2.5156 0.8828,-0.9219 2.4296,-0.9219 0.4844,0 0.961,0.1016 0.4765,0.1015 0.9297,0.3047 z m 1.832,-2.8125 1.0781,0 0,5.3906 3.2188,-2.8281 1.375,0 -3.4844,3.0625 3.6406,3.5 -1.4062,0 -3.3438,-3.2032 0,3.2032 -1.0781,0 0,-9.125 z m 12.6055,5.5781 0,0.5156 -4.9688,0 q 0.0781,1.125 0.6797,1.7031 0.6016,0.5782 1.6641,0.5782 0.625,0 1.2109,-0.1485 0.5859,-0.1484 1.1641,-0.4609 l 0,1.0312 q -0.5938,0.2344 -1.2032,0.3672 -0.6093,0.1328 -1.2343,0.1328 -1.5625,0 -2.4844,-0.914 -0.9219,-0.9141 -0.9219,-2.4766 0,-1.6094 0.875,-2.5547 0.875,-0.9453 2.3438,-0.9453 1.3281,0 2.1015,0.8516 0.7735,0.8515 0.7735,2.3203 z M 37.0605,7.2637 q -0.0156,-0.875 -0.5,-1.4063 -0.4843,-0.5312 -1.2812,-0.5312 -0.9063,0 -1.4453,0.5156 -0.5391,0.5156 -0.6172,1.4375 l 3.8437,-0.0156 z m 7.1641,-1.6875 0,-3.5625 1.0781,0 0,9.125 -1.0781,0 0,-0.9844 q -0.3437,0.5781 -0.8594,0.8672 -0.5156,0.289 -1.25,0.289 -1.1875,0 -1.9375,-0.9531 -0.75,-0.9531 -0.75,-2.5 0,-1.5469 0.75,-2.4922 0.75,-0.9453 1.9375,-0.9453 0.7344,0 1.25,0.2813 0.5157,0.2812 0.8594,0.875 z m -3.6719,2.2812 q 0,1.1875 0.4844,1.8672 0.4844,0.6797 1.3438,0.6797 0.8593,0 1.3515,-0.6797 0.4922,-0.6797 0.4922,-1.8672 0,-1.1875 -0.4922,-1.8594 -0.4922,-0.6718 -1.3515,-0.6718 -0.8594,0 -1.3438,0.6718 -0.4844,0.6719 -0.4844,1.8594 z"
         style="fill:#000000;stroke:none"
         transform="translate(143.3347,118.866)"
         id="path72"
         clip-path="url(#clipPath3)"
         inkscape:connector-curvature="0" />
    </g>
    <g
       style="font-family:sans-serif;stroke-width:2;text-rendering:optimizeLegibility"
       transform="matrix(1.3333,0,0,1.3333,214.51126,203.15074)"
       id="g74">
      <path
         d="M 4.1094,17.5293 2.5,21.873 l 3.2188,0 -1.6094,-4.3437 z m -0.6719,-1.1719 1.3437,0 3.3282,8.75 -1.2344,0 -0.7969,-2.25 -3.9375,0 -0.7968,2.25 -1.25,0 3.3437,-8.75 z m 5.1309,2.1875 1.1406,0 2.0469,5.5 2.0625,-5.5 1.1406,0 -2.4688,6.5625 -1.4687,0 -2.4531,-6.5625 z m 10.8515,3.2656 q -1.2969,0 -1.8047,0.2969 -0.5078,0.2969 -0.5078,1.0156 0,0.5782 0.3828,0.9141 0.3828,0.3359 1.0235,0.3359 0.9062,0 1.4453,-0.6328 0.539,-0.6328 0.539,-1.6953 l 0,-0.2344 -1.0781,0 z m 2.1563,-0.4531 0,3.75 -1.0782,0 0,-1 q -0.375,0.5938 -0.9218,0.8828 -0.5469,0.2891 -1.3438,0.2891 -1.0156,0 -1.6094,-0.5703 -0.5937,-0.5703 -0.5937,-1.5078 0,-1.1094 0.7422,-1.6719 0.7422,-0.5625 2.2109,-0.5625 l 1.5156,0 0,-0.1094 q 0,-0.75 -0.4921,-1.1562 -0.4922,-0.4063 -1.3672,-0.4063 -0.5625,0 -1.1016,0.1406 -0.5391,0.1407 -1.0234,0.4063 l 0,-1 q 0.5937,-0.2344 1.1484,-0.3438 0.5547,-0.1093 1.0859,-0.1093 1.4219,0 2.125,0.7343 0.7032,0.7344 0.7032,2.2344 z m 2.2129,-2.8125 1.0781,0 0,6.5625 -1.0781,0 0,-6.5625 z m 0,-2.5625 1.0781,0 0,1.375 -1.0781,0 0,-1.375 z m 3.3339,0 1.0782,0 0,9.125 -1.0782,0 0,-9.125 z m 6.3184,5.8281 q -1.2969,0 -1.8047,0.2969 -0.5078,0.2969 -0.5078,1.0156 0,0.5782 0.3828,0.9141 0.3828,0.3359 1.0235,0.3359 0.9062,0 1.4453,-0.6328 0.539,-0.6328 0.539,-1.6953 l 0,-0.2344 -1.0781,0 z m 2.1563,-0.4531 0,3.75 -1.0782,0 0,-1 q -0.375,0.5938 -0.9218,0.8828 -0.5469,0.2891 -1.3438,0.2891 -1.0156,0 -1.6094,-0.5703 -0.5937,-0.5703 -0.5937,-1.5078 0,-1.1094 0.7422,-1.6719 0.7422,-0.5625 2.2109,-0.5625 l 1.5156,0 0,-0.1094 q 0,-0.75 -0.4922,-1.1562 -0.4921,-0.4063 -1.3671,-0.4063 -0.5625,0 -1.1016,0.1406 -0.5391,0.1407 -1.0234,0.4063 l 0,-1 q 0.5937,-0.2344 1.1484,-0.3438 0.5547,-0.1093 1.0859,-0.1093 1.4219,0 2.125,0.7343 0.7032,0.7344 0.7032,2.2344 z m 6.9316,0.4688 q 0,-1.1875 -0.4922,-1.8594 -0.4922,-0.6719 -1.3359,-0.6719 -0.8594,0 -1.3516,0.6719 -0.4922,0.6719 -0.4922,1.8594 0,1.1875 0.4922,1.8672 0.4922,0.6796 1.3516,0.6796 0.8437,0 1.3359,-0.6796 0.4922,-0.6797 0.4922,-1.8672 z m -3.6719,-2.2813 q 0.3438,-0.5937 0.8594,-0.875 0.5156,-0.2812 1.2344,-0.2812 1.2031,0 1.9531,0.9453 0.75,0.9453 0.75,2.4922 0,1.5468 -0.75,2.5 -0.75,0.9531 -1.9531,0.9531 -0.7188,0 -1.2344,-0.2891 -0.5156,-0.289 -0.8594,-0.8672 l 0,0.9844 -1.0781,0 0,-9.125 1.0781,0 0,3.5625 z m 6.5703,-3.5625 1.0782,0 0,9.125 -1.0782,0 0,-9.125 z m 8.959,5.5781 0,0.5157 -4.9687,0 q 0.0781,1.125 0.6797,1.7031 0.6015,0.5781 1.664,0.5781 0.625,0 1.211,-0.1484 0.5859,-0.1485 1.164,-0.461 l 0,1.0313 q -0.5937,0.2344 -1.2031,0.3672 -0.6094,0.1328 -1.2344,0.1328 -1.5625,0 -2.4844,-0.9141 -0.9218,-0.914 -0.9218,-2.4765 0,-1.6094 0.875,-2.5547 0.875,-0.9453 2.3437,-0.9453 1.3281,0 2.1016,0.8515 0.7734,0.8516 0.7734,2.3203 z m -1.0781,-0.3281 q -0.0156,-0.875 -0.5,-1.4062 -0.4844,-0.5313 -1.2813,-0.5313 -0.9062,0 -1.4453,0.5156 -0.539,0.5157 -0.6172,1.4375 l 3.8438,-0.0156 z"
         style="stroke:none"
         id="path76"
         clip-path="url(#clipPath3)"
         inkscape:connector-curvature="0" />
    </g>
    <g
       transform="matrix(1.3333,0,0,1.3333,23.4031,44.6667)"
       style="font-family:sans-serif;fill:#ffffcc;stroke:#ffffcc;stroke-width:2;text-rendering:optimizeLegibility"
       id="g78">
      <circle
         r="41.834702"
         style="stroke:none"
         cx="463.83469"
         cy="132.8347"
         id="circle80"
         clip-path="url(#clipPath2)" />
      <circle
         style="fill:none;stroke:#000000"
         r="41.834702"
         cx="463.83469"
         cy="132.8347"
         id="circle82"
         clip-path="url(#clipPath2)" />
      <path
         d="m 4.9863,2.3887 1.1875,0 0,7.75 4.2657,0 0,1 -5.4532,0 0,-8.75 z m 9.1856,2.9375 q -0.8594,0 -1.3672,0.6797 -0.5078,0.6796 -0.5078,1.8515 0,1.1875 0.5,1.8594 0.5,0.6719 1.375,0.6719 0.8593,0 1.3672,-0.6797 0.5078,-0.6797 0.5078,-1.8516 0,-1.1562 -0.5078,-1.8437 -0.5079,-0.6875 -1.3672,-0.6875 z m 0,-0.9063 q 1.4062,0 2.2109,0.9141 0.8047,0.914 0.8047,2.5234 0,1.6094 -0.8047,2.5313 -0.8047,0.9218 -2.2109,0.9218 -1.4063,0 -2.211,-0.9218 -0.8047,-0.9219 -0.8047,-2.5313 0,-1.6094 0.8047,-2.5234 0.8047,-0.9141 2.211,-0.9141 z m 9.5293,0.4063 0,1.0156 q -0.4688,-0.2656 -0.9219,-0.3906 -0.4531,-0.125 -0.9219,-0.125 -1.0625,0 -1.6406,0.664 -0.5781,0.6641 -0.5781,1.8672 0,1.2031 0.5781,1.8672 0.5781,0.6641 1.6406,0.6641 0.4688,0 0.9219,-0.125 0.4531,-0.125 0.9219,-0.375 l 0,1 q -0.4532,0.2031 -0.9375,0.3125 -0.4844,0.1093 -1.0313,0.1093 -1.4844,0 -2.3594,-0.9296 -0.875,-0.9297 -0.875,-2.5235 0,-1.5937 0.8829,-2.5156 0.8828,-0.9219 2.4296,-0.9219 0.4844,0 0.961,0.1016 0.4765,0.1015 0.9297,0.3047 z m 1.832,-2.8125 1.0781,0 0,5.3906 3.2188,-2.8281 1.375,0 -3.4844,3.0625 3.6406,3.5 -1.4062,0 -3.3438,-3.2032 0,3.2032 -1.0781,0 0,-9.125 z m 12.6055,5.5781 0,0.5156 -4.9688,0 q 0.0781,1.125 0.6797,1.7031 0.6016,0.5782 1.6641,0.5782 0.625,0 1.2109,-0.1485 0.5859,-0.1484 1.1641,-0.4609 l 0,1.0312 q -0.5938,0.2344 -1.2032,0.3672 -0.6093,0.1328 -1.2343,0.1328 -1.5625,0 -2.4844,-0.914 -0.9219,-0.9141 -0.9219,-2.4766 0,-1.6094 0.875,-2.5547 0.875,-0.9453 2.3438,-0.9453 1.3281,0 2.1015,0.8516 0.7735,0.8515 0.7735,2.3203 z M 37.0605,7.2637 q -0.0156,-0.875 -0.5,-1.4063 -0.4843,-0.5312 -1.2812,-0.5312 -0.9063,0 -1.4453,0.5156 -0.5391,0.5156 -0.6172,1.4375 l 3.8437,-0.0156 z m 7.1641,-1.6875 0,-3.5625 1.0781,0 0,9.125 -1.0781,0 0,-0.9844 q -0.3437,0.5781 -0.8594,0.8672 -0.5156,0.289 -1.25,0.289 -1.1875,0 -1.9375,-0.9531 -0.75,-0.9531 -0.75,-2.5 0,-1.5469 0.75,-2.4922 0.75,-0.9453 1.9375,-0.9453 0.7344,0 1.25,0.2813 0.5157,0.2812 0.8594,0.875 z m -3.6719,2.2812 q 0,1.1875 0.4844,1.8672 0.4844,0.6797 1.3438,0.6797 0.8593,0 1.3515,-0.6797 0.4922,-0.6797 0.4922,-1.8672 0,-1.1875 -0.4922,-1.8594 -0.4922,-0.6718 -1.3515,-0.6718 -0.8594,0 -1.3438,0.6718 -0.4844,0.6719 -0.4844,1.8594 z"
         style="fill:#000000;stroke:none"
         transform="translate(434.8347,118.866)"
         id="path84"
         clip-path="url(#clipPath4)"
         inkscape:connector-curvature="0" />
    </g>
    <g
       style="font-family:sans-serif;stroke-width:2;text-rendering:optimizeLegibility"
       transform="matrix(1.3333,0,0,1.3333,603.16821,203.15074)"
       id="g86">
      <path
         d="m 5.3281,20.998 q 0.375,0.1407 0.7344,0.5625 0.3594,0.4219 0.7344,1.1563 L 8,25.1074 l -1.2812,0 -1.1094,-2.25 Q 5.1719,21.9824 4.7656,21.6934 4.3594,21.4043 3.6562,21.4043 l -1.2968,0 0,3.7031 -1.1875,0 0,-8.75 2.6719,0 q 1.5,0 2.2421,0.625 0.7422,0.625 0.7422,1.8906 0,0.8282 -0.3828,1.375 -0.3828,0.5469 -1.1172,0.75 z m -2.9687,-3.6718 0,3.1093 1.4844,0 q 0.8593,0 1.2968,-0.3984 0.4375,-0.3984 0.4375,-1.1641 0,-0.7656 -0.4375,-1.1562 -0.4375,-0.3906 -1.2968,-0.3906 l -1.4844,0 z m 12.7285,4.2343 0,0.5157 -4.9688,0 q 0.0782,1.125 0.6797,1.7031 0.6016,0.5781 1.6641,0.5781 0.625,0 1.2109,-0.1484 0.586,-0.1485 1.1641,-0.461 l 0,1.0313 q -0.5938,0.2344 -1.2031,0.3672 -0.6094,0.1328 -1.2344,0.1328 -1.5625,0 -2.4844,-0.9141 -0.9219,-0.914 -0.9219,-2.4765 0,-1.6094 0.875,-2.5547 0.875,-0.9453 2.3438,-0.9453 1.3281,0 2.1016,0.8515 0.7734,0.8516 0.7734,2.3203 z m -1.0781,-0.3281 q -0.0157,-0.875 -0.5,-1.4062 -0.4844,-0.5313 -1.2813,-0.5313 -0.9062,0 -1.4453,0.5156 -0.5391,0.5157 -0.6172,1.4375 l 3.8438,-0.0156 z m 7.0234,-2.5 0,1.0313 q -0.4531,-0.2344 -0.9453,-0.3516 -0.4922,-0.1172 -1.0234,-0.1172 -0.7969,0 -1.2032,0.2422 -0.4062,0.2422 -0.4062,0.7422 0,0.375 0.289,0.5859 0.2891,0.211 1.1641,0.3985 l 0.3594,0.0937 q 1.1562,0.2344 1.6406,0.6875 0.4844,0.4531 0.4844,1.25 0,0.9219 -0.7266,1.4531 -0.7265,0.5313 -1.9922,0.5313 -0.5312,0 -1.1015,-0.1016 Q 17.002,25.0762 16.377,24.873 l 0,-1.125 q 0.5937,0.3125 1.1718,0.4688 0.5782,0.1562 1.1563,0.1562 0.75,0 1.164,-0.2578 0.4141,-0.2578 0.4141,-0.7422 0,-0.4375 -0.2969,-0.6718 -0.2968,-0.2344 -1.2968,-0.4532 l -0.375,-0.0781 q -1,-0.2187 -1.4454,-0.6562 -0.4453,-0.4375 -0.4453,-1.1875 0,-0.9375 0.6563,-1.4375 0.6562,-0.5 1.8594,-0.5 0.5937,0 1.125,0.0859 0.5312,0.0859 0.9687,0.2578 z m 7.6895,2.8281 0,0.5157 -4.9688,0 q 0.0781,1.125 0.6797,1.7031 0.6016,0.5781 1.6641,0.5781 0.625,0 1.2109,-0.1484 0.5859,-0.1485 1.1641,-0.461 l 0,1.0313 q -0.5938,0.2344 -1.2032,0.3672 -0.6093,0.1328 -1.2343,0.1328 -1.5625,0 -2.4844,-0.9141 -0.9219,-0.914 -0.9219,-2.4765 0,-1.6094 0.875,-2.5547 0.875,-0.9453 2.3438,-0.9453 1.3281,0 2.1015,0.8515 0.7735,0.8516 0.7735,2.3203 z m -1.0782,-0.3281 q -0.0156,-0.875 -0.5,-1.4062 -0.4843,-0.5313 -1.2812,-0.5313 -0.9063,0 -1.4453,0.5156 -0.5391,0.5157 -0.6172,1.4375 l 3.8437,-0.0156 z m 6.6485,-1.6875 q -0.1875,-0.0937 -0.3985,-0.1484 -0.2109,-0.0547 -0.4765,-0.0547 -0.9063,0 -1.3985,0.5937 -0.4922,0.5938 -0.4922,1.7188 l 0,3.4531 -1.0781,0 0,-6.5625 1.0781,0 0,1.0156 q 0.3438,-0.5937 0.8907,-0.8828 0.5468,-0.289 1.3281,-0.289 0.1094,0 0.2422,0.0156 0.1328,0.0156 0.289,0.0469 l 0.0157,1.0937 z m 0.3554,-1 1.1407,0 2.0468,5.5 2.0625,-5.5 1.1407,0 -2.4688,6.5625 -1.4687,0 -2.4532,-6.5625 z m 13.4922,3.0156 0,0.5157 -4.9687,0 q 0.0781,1.125 0.6797,1.7031 0.6015,0.5781 1.664,0.5781 0.625,0 1.211,-0.1484 0.5859,-0.1485 1.164,-0.461 l 0,1.0313 q -0.5937,0.2344 -1.2031,0.3672 -0.6094,0.1328 -1.2344,0.1328 -1.5625,0 -2.4843,-0.9141 -0.9219,-0.914 -0.9219,-2.4765 0,-1.6094 0.875,-2.5547 0.875,-0.9453 2.3437,-0.9453 1.3282,0 2.1016,0.8515 0.7734,0.8516 0.7734,2.3203 z m -1.0781,-0.3281 q -0.0156,-0.875 -0.5,-1.4062 -0.4844,-0.5313 -1.2813,-0.5313 -0.9062,0 -1.4453,0.5156 -0.539,0.5157 -0.6171,1.4375 l 3.8437,-0.0156 z m 7.1641,-1.6875 0,-3.5625 1.0781,0 0,9.125 -1.0781,0 0,-0.9844 q -0.3438,0.5782 -0.8594,0.8672 -0.5156,0.2891 -1.25,0.2891 -1.1875,0 -1.9375,-0.9531 -0.75,-0.9532 -0.75,-2.5 0,-1.5469 0.75,-2.4922 0.75,-0.9453 1.9375,-0.9453 0.7344,0 1.25,0.2812 0.5156,0.2813 0.8594,0.875 z m -3.6719,2.2813 q 0,1.1875 0.4844,1.8672 0.4843,0.6796 1.3437,0.6796 0.8594,0 1.3516,-0.6796 0.4922,-0.6797 0.4922,-1.8672 0,-1.1875 -0.4922,-1.8594 -0.4922,-0.6719 -1.3516,-0.6719 -0.8594,0 -1.3437,0.6719 -0.4844,0.6719 -0.4844,1.8594 z"
         style="stroke:none"
         id="path88"
         clip-path="url(#clipPath4)"
         inkscape:connector-curvature="0" />
    </g>
    <g
       style="font-family:sans-serif;stroke-width:2;text-rendering:optimizeLegibility"
       transform="matrix(1.3333,0,0,1.3333,400.50527,157.87654)"
       id="g90">
      <path
         d="M 4.9375,-5.5625 Q 4.75,-5.6562 4.5391,-5.7109 4.3281,-5.7656 4.0625,-5.7656 q -0.9063,0 -1.3984,0.5937 -0.4922,0.5938 -0.4922,1.7188 l 0,3.4531 -1.0781,0 0,-6.5625 1.0781,0 0,1.0156 q 0.3437,-0.5937 0.8906,-0.8828 0.5469,-0.2891 1.3281,-0.2891 0.1094,0 0.2422,0.0157 0.1328,0.0156 0.2891,0.0469 l 0.0156,1.0937 z m 6.7461,2.0156 0,0.5157 -4.9688,0 q 0.0782,1.125 0.6797,1.7031 0.6016,0.5781 1.6641,0.5781 0.625,0 1.2109,-0.1484 0.586,-0.1485 1.1641,-0.461 l 0,1.0313 q -0.5938,0.2343 -1.2031,0.3672 -0.6094,0.1328 -1.2344,0.1328 -1.5625,0 -2.4844,-0.9141 -0.9219,-0.914 -0.9219,-2.4766 0,-1.6093 0.875,-2.5546 0.875,-0.9454 2.3438,-0.9454 1.3281,0 2.1016,0.8516 0.7734,0.8516 0.7734,2.3203 z M 10.6055,-3.875 q -0.0157,-0.875 -0.5,-1.4062 -0.4844,-0.5313 -1.2813,-0.5313 -0.9062,0 -1.4453,0.5156 -0.5391,0.5157 -0.6172,1.4375 l 3.8438,-0.0156 z m 7.0234,-2.5 0,1.0312 q -0.4531,-0.2343 -0.9453,-0.3515 -0.4922,-0.1172 -1.0234,-0.1172 -0.7969,0 -1.2032,0.2422 -0.4062,0.2422 -0.4062,0.7422 0,0.375 0.289,0.5859 0.2891,0.211 1.1641,0.3984 l 0.3594,0.0938 q 1.1562,0.2344 1.6406,0.6875 0.4844,0.4531 0.4844,1.25 0,0.9219 -0.7266,1.4531 -0.7265,0.5313 -1.9922,0.5313 -0.5312,0 -1.1015,-0.1016 -0.5703,-0.1015 -1.1953,-0.3047 l 0,-1.125 q 0.5937,0.3125 1.1718,0.4688 0.5782,0.1562 1.1563,0.1562 0.75,0 1.164,-0.2578 0.4141,-0.2578 0.4141,-0.7422 0,-0.4375 -0.2969,-0.6718 -0.2968,-0.2344 -1.2968,-0.4532 l -0.375,-0.0781 q -1,-0.2187 -1.4454,-0.6563 -0.4453,-0.4374 -0.4453,-1.1874 0,-0.9376 0.6563,-1.4376 0.6562,-0.5 1.8594,-0.5 0.5937,0 1.125,0.086 0.5312,0.0859 0.9687,0.2578 z m 7.6895,2.8281 0,0.5157 -4.9688,0 q 0.0781,1.125 0.6797,1.7031 0.6016,0.5781 1.6641,0.5781 0.625,0 1.2109,-0.1484 0.5859,-0.1485 1.1641,-0.461 l 0,1.0313 q -0.5938,0.2343 -1.2032,0.3672 -0.6093,0.1328 -1.2343,0.1328 -1.5625,0 -2.4844,-0.9141 -0.9219,-0.914 -0.9219,-2.4766 0,-1.6093 0.875,-2.5546 0.875,-0.9454 2.3438,-0.9454 1.3281,0 2.1015,0.8516 0.7735,0.8516 0.7735,2.3203 z M 24.2402,-3.875 q -0.0156,-0.875 -0.5,-1.4062 -0.4843,-0.5313 -1.2812,-0.5313 -0.9063,0 -1.4453,0.5156 -0.5391,0.5157 -0.6172,1.4375 l 3.8437,-0.0156 z m 6.6485,-1.6875 q -0.1875,-0.0937 -0.3985,-0.1484 -0.2109,-0.0547 -0.4765,-0.0547 -0.9063,0 -1.3985,0.5937 -0.4922,0.5938 -0.4922,1.7188 l 0,3.4531 -1.0781,0 0,-6.5625 1.0781,0 0,1.0156 q 0.3438,-0.5937 0.8907,-0.8828 0.5468,-0.2891 1.3281,-0.2891 0.1094,0 0.2422,0.0157 0.1328,0.0156 0.289,0.0469 l 0.0157,1.0937 z m 0.3554,-1 1.1407,0 2.0468,5.5 2.0625,-5.5 1.1407,0 L 35.166,0 33.6973,0 31.2441,-6.5625 Z m 10.8516,3.2656 q -1.2969,0 -1.8047,0.2969 -0.5078,0.2969 -0.5078,1.0156 0,0.5782 0.3828,0.9141 0.3828,0.3359 1.0235,0.3359 0.9062,0 1.4453,-0.6328 0.539,-0.6328 0.539,-1.6953 l 0,-0.2344 -1.0781,0 z m 2.1563,-0.4531 0,3.75 -1.0782,0 0,-1 q -0.375,0.5938 -0.9218,0.8828 -0.5469,0.2891 -1.3438,0.2891 -1.0156,0 -1.6094,-0.5703 -0.5937,-0.5704 -0.5937,-1.5078 0,-1.1094 0.7422,-1.6719 0.7422,-0.5625 2.2109,-0.5625 l 1.5156,0 0,-0.1094 q 0,-0.75 -0.4922,-1.1562 -0.4921,-0.4063 -1.3671,-0.4063 -0.5625,0 -1.1016,0.1406 -0.5391,0.1407 -1.0234,0.4063 l 0,-1 q 0.5937,-0.2344 1.1484,-0.3438 0.5547,-0.1094 1.0859,-0.1094 1.4219,0 2.125,0.7344 0.7032,0.7344 0.7032,2.2344 z m 3.291,-4.6719 0,1.8594 2.2187,0 0,0.8437 -2.2187,0 0,3.5626 q 0,0.7968 0.2187,1.0234 0.2188,0.2266 0.8906,0.2266 l 1.1094,0 0,0.9062 -1.1094,0 q -1.25,0 -1.7265,-0.4688 -0.4766,-0.4687 -0.4766,-1.6874 l 0,-3.5626 -0.7812,0 0,-0.8437 0.7812,0 0,-1.8594 1.0938,0 z m 3.6269,1.8594 1.0781,0 0,6.5625 -1.0781,0 0,-6.5625 z m 0,-2.5625 1.0781,0 0,1.375 -1.0781,0 0,-1.375 z m 5.8809,3.3125 q -0.8594,0 -1.3672,0.6797 -0.5078,0.6797 -0.5078,1.8516 0,1.1874 0.5,1.8593 0.5,0.6719 1.375,0.6719 0.8594,0 1.3672,-0.6797 0.5078,-0.6797 0.5078,-1.8515 0,-1.1563 -0.5078,-1.8438 -0.5078,-0.6875 -1.3672,-0.6875 z m 0,-0.9063 q 1.4062,0 2.2109,0.9141 0.8047,0.9141 0.8047,2.5235 0,1.6093 -0.8047,2.5312 -0.8047,0.9219 -2.2109,0.9219 -1.4063,0 -2.211,-0.9219 -0.8046,-0.9219 -0.8046,-2.5312 0,-1.6094 0.8046,-2.5235 0.8047,-0.9141 2.211,-0.9141 z m 10.2637,2.75 0,3.9688 -1.0782,0 0,-3.9219 q 0,-0.9375 -0.3672,-1.3984 -0.3671,-0.4609 -1.0859,-0.4609 -0.875,0 -1.3828,0.5546 -0.5078,0.5547 -0.5078,1.5235 l 0,3.7031 -1.0781,0 0,-6.5625 1.0781,0 0,1.0156 q 0.3906,-0.5937 0.914,-0.8828 0.5235,-0.2891 1.211,-0.2891 1.125,0 1.7109,0.6954 0.586,0.6953 0.586,2.0546 z"
         style="stroke:none"
         id="path92"
         clip-path="url(#clipPath5)"
         inkscape:connector-curvature="0" />
    </g>
    <g
       style="font-family:sans-serif;text-rendering:optimizeLegibility"
       transform="matrix(1.3333,0,0,1.3333,23.4031,44.6667)"
       id="g94">
      <path
         d="M 212.6694,110.5233 C 269,86.5 379,90.5 422,109.6278"
         style="fill:none"
         id="path96"
         clip-path="url(#clipPath2)"
         inkscape:connector-curvature="0" />
      <line
         x1="422"
         x2="410.06619"
         y1="109.6278"
         style="fill:none"
         y2="110.8861"
         id="line98"
         clip-path="url(#clipPath2)" />
      <line
         x1="422"
         x2="414.94339"
         y1="109.6278"
         style="fill:none"
         y2="99.921898"
         id="line100"
         clip-path="url(#clipPath2)" />
    </g>
    <g
       style="font-family:sans-serif;text-rendering:optimizeLegibility"
       transform="matrix(1.3333,0,0,1.3333,410.1717,297.87517)"
       id="g102">
      <path
         d="m 2.2031,-8.4219 0,1.8594 2.2188,0 0,0.8437 -2.2188,0 0,3.5626 q 0,0.7968 0.2188,1.0234 0.2187,0.2266 0.8906,0.2266 l 1.1094,0 0,0.9062 -1.1094,0 Q 2.0625,0 1.5859,-0.4688 1.1094,-0.9375 1.1094,-2.1562 l 0,-3.5626 -0.7813,0 0,-0.8437 0.7813,0 0,-1.8594 1.0937,0 z m 3.627,1.8594 1.0781,0 0,6.5625 -1.0781,0 0,-6.5625 z m 0,-2.5625 1.0781,0 0,1.375 -1.0781,0 0,-1.375 z m 8.4433,3.8281 q 0.4063,-0.7343 0.9688,-1.0781 0.5625,-0.3438 1.3281,-0.3438 1.0313,0 1.5859,0.7188 0.5547,0.7188 0.5547,2.0312 l 0,3.9688 -1.0781,0 0,-3.9219 q 0,-0.9531 -0.3359,-1.4062 -0.336,-0.4531 -1.0235,-0.4531 -0.8437,0 -1.3281,0.5546 -0.4844,0.5547 -0.4844,1.5235 l 0,3.7031 -1.0781,0 0,-3.9219 q 0,-0.9531 -0.3359,-1.4062 -0.336,-0.4531 -1.0391,-0.4531 -0.8281,0 -1.3125,0.5546 -0.4844,0.5547 -0.4844,1.5235 l 0,3.7031 -1.0781,0 0,-6.5625 1.0781,0 0,1.0156 q 0.375,-0.5937 0.8907,-0.8828 0.5156,-0.2891 1.2187,-0.2891 0.7188,0 1.2188,0.3594 0.5,0.3594 0.7343,1.0625 z m 12.2051,1.75 0,0.5157 -4.9687,0 q 0.0781,1.125 0.6797,1.7031 0.6015,0.5781 1.664,0.5781 0.625,0 1.211,-0.1484 0.5859,-0.1485 1.164,-0.461 l 0,1.0313 q -0.5937,0.2343 -1.2031,0.3672 -0.6094,0.1328 -1.2344,0.1328 -1.5625,0 -2.4844,-0.9141 -0.9218,-0.914 -0.9218,-2.4766 0,-1.6093 0.875,-2.5546 0.875,-0.9454 2.3437,-0.9454 1.3281,0 2.1016,0.8516 0.7734,0.8516 0.7734,2.3203 z M 25.4004,-3.875 q -0.0156,-0.875 -0.5,-1.4062 -0.4844,-0.5313 -1.2813,-0.5313 -0.9062,0 -1.4453,0.5156 -0.539,0.5157 -0.6172,1.4375 l 3.8438,-0.0156 z m 12.2754,0.3281 0,0.5157 -4.9688,0 q 0.0782,1.125 0.6797,1.7031 0.6016,0.5781 1.6641,0.5781 0.625,0 1.2109,-0.1484 0.586,-0.1485 1.1641,-0.461 l 0,1.0313 q -0.5938,0.2343 -1.2031,0.3672 -0.6094,0.1328 -1.2344,0.1328 -1.5625,0 -2.4844,-0.9141 -0.9219,-0.914 -0.9219,-2.4766 0,-1.6093 0.875,-2.5546 0.875,-0.9454 2.3438,-0.9454 1.3281,0 2.1015,0.8516 0.7735,0.8516 0.7735,2.3203 z M 36.5977,-3.875 q -0.0157,-0.875 -0.5,-1.4062 -0.4844,-0.5313 -1.2813,-0.5313 -0.9062,0 -1.4453,0.5156 -0.5391,0.5157 -0.6172,1.4375 L 36.5977,-3.875 Z M 44.9023,-6.5625 42.5273,-3.375 45.0117,0 43.7461,0 41.8398,-2.5781 39.9336,0 l -1.2813,0 2.5469,-3.4375 -2.3281,-3.125 1.2656,0 1.75,2.3437 1.7344,-2.3437 1.2812,0 z m 2.6797,5.5781 0,3.4844 -1.0781,0 0,-9.0625 1.0781,0 0,1 q 0.3438,-0.5937 0.8594,-0.875 0.5156,-0.2813 1.2344,-0.2813 1.2031,0 1.9531,0.9454 0.75,0.9453 0.75,2.4922 0,1.5468 -0.75,2.5 -0.75,0.9531 -1.9531,0.9531 -0.7188,0 -1.2344,-0.2891 -0.5156,-0.289 -0.8594,-0.8672 z m 3.6719,-2.2968 q 0,-1.1876 -0.4922,-1.8594 -0.4922,-0.6719 -1.3359,-0.6719 -0.8594,0 -1.3516,0.6719 -0.4922,0.6718 -0.4922,1.8594 0,1.1874 0.4922,1.8671 0.4922,0.6797 1.3516,0.6797 0.8437,0 1.3359,-0.6797 0.4922,-0.6797 0.4922,-1.8671 z m 2.8984,-3.2813 1.0782,0 0,6.5625 -1.0782,0 0,-6.5625 z m 0,-2.5625 1.0782,0 0,1.375 -1.0782,0 0,-1.375 z m 7.1465,3.5625 q -0.1875,-0.0937 -0.3984,-0.1484 -0.2109,-0.0547 -0.4766,-0.0547 -0.9062,0 -1.3984,0.5937 -0.4922,0.5938 -0.4922,1.7188 l 0,3.4531 -1.0781,0 0,-6.5625 1.0781,0 0,1.0156 q 0.3438,-0.5937 0.8906,-0.8828 0.5469,-0.2891 1.3282,-0.2891 0.1093,0 0.2421,0.0157 0.1329,0.0156 0.2891,0.0469 l 0.0156,1.0937 z m 6.7461,2.0156 0,0.5157 -4.9687,0 q 0.0781,1.125 0.6797,1.7031 0.6015,0.5781 1.664,0.5781 0.625,0 1.211,-0.1484 0.5859,-0.1485 1.164,-0.461 l 0,1.0313 q -0.5937,0.2343 -1.2031,0.3672 -0.6094,0.1328 -1.2344,0.1328 -1.5625,0 -2.4844,-0.9141 -0.9218,-0.914 -0.9218,-2.4766 0,-1.6093 0.875,-2.5546 0.875,-0.9454 2.3437,-0.9454 1.3281,0 2.1016,0.8516 0.7734,0.8516 0.7734,2.3203 z M 66.9668,-3.875 q -0.0156,-0.875 -0.5,-1.4062 -0.4844,-0.5313 -1.2813,-0.5313 -0.9062,0 -1.4453,0.5156 -0.539,0.5157 -0.6172,1.4375 l 3.8438,-0.0156 z m 7.1641,-1.6875 0,-3.5625 1.0781,0 0,9.125 -1.0781,0 0,-0.9844 q -0.3438,0.5782 -0.8594,0.8672 -0.5156,0.2891 -1.25,0.2891 -1.1875,0 -1.9375,-0.9531 -0.75,-0.9532 -0.75,-2.5 0,-1.5469 0.75,-2.4922 0.75,-0.9454 1.9375,-0.9454 0.7344,0 1.25,0.2813 0.5156,0.2813 0.8594,0.875 z m -3.6719,2.2813 q 0,1.1874 0.4844,1.8671 0.4843,0.6797 1.3437,0.6797 0.8594,0 1.3516,-0.6797 0.4922,-0.6797 0.4922,-1.8671 0,-1.1876 -0.4922,-1.8594 -0.4922,-0.6719 -1.3516,-0.6719 -0.8594,0 -1.3437,0.6719 -0.4844,0.6718 -0.4844,1.8594 z"
         style="stroke:none"
         id="path104"
         clip-path="url(#clipPath6)"
         inkscape:connector-curvature="0" />
    </g>
    <g
       style="font-family:sans-serif;text-rendering:optimizeLegibility"
       transform="matrix(1.3333,0,0,1.3333,23.4031,44.6667)"
       id="g106">
      <path
         d="M 422,147.7102 C 379,163 275,165.5 212.6694,145.9537"
         style="fill:none"
         id="path108"
         clip-path="url(#clipPath2)"
         inkscape:connector-curvature="0" />
      <line
         x1="212.6694"
         x2="224.38091"
         y1="145.9537"
         style="fill:none"
         y2="143.3382"
         id="line110"
         clip-path="url(#clipPath2)" />
      <line
         x1="212.6694"
         x2="220.79021"
         y1="145.9537"
         style="fill:none"
         y2="154.78841"
         id="line112"
         clip-path="url(#clipPath2)" />
      <circle
         style="fill:#ffffcc;stroke:none;stroke-width:2"
         r="41.834702"
         cx="676.83472"
         cy="132.8347"
         id="circle114"
         clip-path="url(#clipPath2)" />
      <circle
         style="fill:none;stroke-width:2"
         r="41.834702"
         cx="676.83472"
         cy="132.8347"
         id="circle116"
         clip-path="url(#clipPath2)" />
      <path
         d="m 1.0469,2.3887 1.1875,0 0,5.3125 q 0,1.4062 0.5078,2.0234 0.5078,0.6172 1.6484,0.6172 1.1406,0 1.6485,-0.6172 0.5078,-0.6172 0.5078,-2.0234 l 0,-5.3125 1.1875,0 0,5.4687 q 0,1.7031 -0.8438,2.5781 -0.8437,0.875 -2.5,0.875 -1.6562,0 -2.5,-0.875 Q 1.0469,9.5605 1.0469,7.8574 l 0,-5.4687 z m 14.3301,4.7812 0,3.9688 -1.0782,0 0,-3.9219 q 0,-0.9375 -0.3672,-1.3984 -0.3671,-0.461 -1.0859,-0.461 -0.875,0 -1.3828,0.5547 -0.5078,0.5547 -0.5078,1.5234 l 0,3.7032 -1.0781,0 0,-6.5625 1.0781,0 0,1.0156 q 0.3906,-0.5938 0.914,-0.8828 0.5235,-0.2891 1.211,-0.2891 1.125,0 1.7109,0.6953 0.586,0.6953 0.586,2.0547 z m 2.1367,-5.1562 1.0781,0 0,9.125 -1.0781,0 0,-9.125 z m 5.8808,3.3125 q -0.8593,0 -1.3672,0.6797 -0.5078,0.6796 -0.5078,1.8515 0,1.1875 0.5,1.8594 0.5,0.6719 1.375,0.6719 0.8594,0 1.3672,-0.6797 0.5078,-0.6797 0.5078,-1.8516 0,-1.1562 -0.5078,-1.8437 -0.5078,-0.6875 -1.3672,-0.6875 z m 0,-0.9063 q 1.4063,0 2.211,0.9141 0.8047,0.914 0.8047,2.5234 0,1.6094 -0.8047,2.5313 -0.8047,0.9218 -2.211,0.9218 -1.4062,0 -2.2109,-0.9218 -0.8047,-0.9219 -0.8047,-2.5313 0,-1.6094 0.8047,-2.5234 0.8047,-0.9141 2.2109,-0.9141 z m 9.5293,0.4063 0,1.0156 Q 32.4551,5.5762 32.002,5.4512 q -0.4532,-0.125 -0.9219,-0.125 -1.0625,0 -1.6406,0.664 -0.5782,0.6641 -0.5782,1.8672 0,1.2031 0.5782,1.8672 0.5781,0.6641 1.6406,0.6641 0.4687,0 0.9219,-0.125 0.4531,-0.125 0.9218,-0.375 l 0,1 q -0.4531,0.2031 -0.9375,0.3125 -0.4843,0.1093 -1.0312,0.1093 -1.4844,0 -2.3594,-0.9296 -0.875,-0.9297 -0.875,-2.5235 0,-1.5937 0.8828,-2.5156 0.8828,-0.9219 2.4297,-0.9219 0.4844,0 0.9609,0.1016 0.4766,0.1015 0.9297,0.3047 z m 1.8321,-2.8125 1.0781,0 0,5.3906 3.2187,-2.8281 1.375,0 -3.4843,3.0625 3.6406,3.5 -1.4063,0 -3.3437,-3.2032 0,3.2032 -1.0781,0 0,-9.125 z m 12.6054,5.5781 0,0.5156 -4.9687,0 q 0.0781,1.125 0.6797,1.7031 0.6015,0.5782 1.664,0.5782 0.625,0 1.211,-0.1485 0.5859,-0.1484 1.164,-0.4609 l 0,1.0312 q -0.5937,0.2344 -1.2031,0.3672 -0.6094,0.1328 -1.2344,0.1328 -1.5625,0 -2.4843,-0.914 -0.9219,-0.9141 -0.9219,-2.4766 0,-1.6094 0.875,-2.5547 0.875,-0.9453 2.3437,-0.9453 1.3282,0 2.1016,0.8516 0.7734,0.8515 0.7734,2.3203 z M 46.2832,7.2637 q -0.0156,-0.875 -0.5,-1.4063 -0.4844,-0.5312 -1.2812,-0.5312 -0.9063,0 -1.4454,0.5156 -0.539,0.5156 -0.6171,1.4375 l 3.8437,-0.0156 z m 7.1641,-1.6875 0,-3.5625 1.0781,0 0,9.125 -1.0781,0 0,-0.9844 q -0.3438,0.5781 -0.8594,0.8672 -0.5156,0.289 -1.25,0.289 -1.1875,0 -1.9375,-0.9531 -0.75,-0.9531 -0.75,-2.5 0,-1.5469 0.75,-2.4922 0.75,-0.9453 1.9375,-0.9453 0.7344,0 1.25,0.2813 0.5156,0.2812 0.8594,0.875 z m -3.6719,2.2812 q 0,1.1875 0.4844,1.8672 0.4843,0.6797 1.3437,0.6797 0.8594,0 1.3516,-0.6797 0.4922,-0.6797 0.4922,-1.8672 0,-1.1875 -0.4922,-1.8594 -0.4922,-0.6718 -1.3516,-0.6718 -0.8594,0 -1.3437,0.6718 -0.4844,0.6719 -0.4844,1.8594 z"
         style="stroke:none;stroke-width:2"
         transform="translate(647.8347,118.866)"
         id="path118"
         clip-path="url(#clipPath7)"
         inkscape:connector-curvature="0" />
    </g>
    <g
       style="font-family:sans-serif;stroke-width:2;text-rendering:optimizeLegibility"
       transform="matrix(1.3333,0,0,1.3333,887.16111,203.15074)"
       id="g120">
      <path
         d="m 8.8008,16.3574 1.1875,0 0,8.75 -1.1875,0 0,-8.75 z m 8.9609,4.7813 0,3.9687 -1.0781,0 0,-3.9219 q 0,-0.9375 -0.3672,-1.3984 -0.3672,-0.4609 -1.0859,-0.4609 -0.875,0 -1.3828,0.5547 -0.5079,0.5546 -0.5079,1.5234 l 0,3.7031 -1.0781,0 0,-6.5625 1.0781,0 0,1.0156 q 0.3907,-0.5937 0.9141,-0.8828 0.5234,-0.289 1.2109,-0.289 1.125,0 1.711,0.6953 0.5859,0.6953 0.5859,2.0547 z m 5.8418,1.375 0,-3.9688 1.0781,0 0,3.9375 q 0,0.9219 0.3672,1.3906 0.3672,0.4688 1.086,0.4688 0.875,0 1.3828,-0.5547 0.5078,-0.5547 0.5078,-1.5234 l 0,-3.7188 1.0781,0 0,6.5625 -1.0781,0 0,-1.0156 q -0.3906,0.6094 -0.9063,0.8984 -0.5156,0.2891 -1.2031,0.2891 -1.1406,0 -1.7265,-0.7031 -0.586,-0.7032 -0.586,-2.0625 z m 2.7188,-4.125 0,0 z m 9.1836,0.3437 0,1.0313 q -0.4532,-0.2344 -0.9454,-0.3516 -0.4921,-0.1172 -1.0234,-0.1172 -0.7969,0 -1.2031,0.2422 -0.4063,0.2422 -0.4063,0.7422 0,0.375 0.2891,0.5859 0.2891,0.211 1.1641,0.3985 l 0.3593,0.0937 q 1.1563,0.2344 1.6407,0.6875 0.4843,0.4531 0.4843,1.25 0,0.9219 -0.7265,1.4531 -0.7266,0.5313 -1.9922,0.5313 -0.5313,0 -1.1016,-0.1016 -0.5703,-0.1015 -1.1953,-0.3047 l 0,-1.125 q 0.5938,0.3125 1.1719,0.4688 0.5781,0.1562 1.1562,0.1562 0.75,0 1.1641,-0.2578 0.4141,-0.2578 0.4141,-0.7422 0,-0.4375 -0.2969,-0.6718 -0.2969,-0.2344 -1.2969,-0.4532 l -0.375,-0.0781 q -1,-0.2187 -1.4453,-0.6562 -0.4453,-0.4375 -0.4453,-1.1875 0,-0.9375 0.6562,-1.4375 0.6563,-0.5 1.8594,-0.5 0.5938,0 1.125,0.0859 0.5313,0.0859 0.9688,0.2578 z m 7.6894,2.8281 0,0.5157 -4.9687,0 q 0.0781,1.125 0.6796,1.7031 0.6016,0.5781 1.6641,0.5781 0.625,0 1.2109,-0.1484 0.586,-0.1485 1.1641,-0.461 l 0,1.0313 q -0.5937,0.2344 -1.2031,0.3672 -0.6094,0.1328 -1.2344,0.1328 -1.5625,0 -2.4844,-0.9141 -0.9218,-0.914 -0.9218,-2.4765 0,-1.6094 0.875,-2.5547 0.875,-0.9453 2.3437,-0.9453 1.3281,0 2.1016,0.8515 0.7734,0.8516 0.7734,2.3203 z m -1.0781,-0.3281 q -0.0156,-0.875 -0.5,-1.4062 -0.4844,-0.5313 -1.2813,-0.5313 -0.9062,0 -1.4453,0.5156 -0.539,0.5157 -0.6172,1.4375 l 3.8438,-0.0156 z"
         style="stroke:none"
         id="path122"
         clip-path="url(#clipPath7)"
         inkscape:connector-curvature="0" />
    </g>
    <g
       transform="matrix(1.3333,0,0,1.3333,23.4031,44.6667)"
       style="font-family:sans-serif;fill:#ffffcc;stroke:#ffffcc;stroke-width:2;text-rendering:optimizeLegibility"
       id="g124">
      <circle
         r="41.834702"
         style="stroke:none"
         cx="889.83472"
         cy="132.8347"
         id="circle126"
         clip-path="url(#clipPath2)" />
      <circle
         style="fill:none;stroke:#000000"
         r="41.834702"
         cx="889.83472"
         cy="132.8347"
         id="circle128"
         clip-path="url(#clipPath2)" />
      <path
         d="m 2.3594,3.3574 0,6.8125 1.4375,0 q 1.8125,0 2.6484,-0.8203 Q 7.2812,8.5293 7.2812,6.748 7.2812,4.998 6.4453,4.1777 5.6094,3.3574 3.7969,3.3574 l -1.4375,0 z m -1.1875,-0.9687 2.4375,0 q 2.5468,0 3.7344,1.0547 1.1874,1.0546 1.1874,3.3046 0,2.2657 -1.1953,3.3282 -1.1953,1.0625 -3.7265,1.0625 l -2.4375,0 0,-8.75 z M 14.1777,5.5762 Q 13.9902,5.4824 13.7793,5.4277 13.5684,5.373 13.3027,5.373 q -0.9062,0 -1.3984,0.5938 -0.4922,0.5937 -0.4922,1.7187 l 0,3.4532 -1.0781,0 0,-6.5625 1.0781,0 0,1.0156 q 0.3438,-0.5938 0.8906,-0.8828 0.5469,-0.2891 1.3282,-0.2891 0.1093,0 0.2421,0.0156 0.1329,0.0157 0.2891,0.0469 l 0.0156,1.0938 z m 1.1211,-1 1.0782,0 0,6.5625 -1.0782,0 0,-6.5625 z m 0,-2.5625 1.0782,0 0,1.375 -1.0782,0 0,-1.375 z m 2.5684,2.5625 1.1406,0 2.0469,5.5 2.0625,-5.5 1.1406,0 -2.4687,6.5625 -1.4688,0 -2.4531,-6.5625 z m 7.8672,0 1.0781,0 0,6.5625 -1.0781,0 0,-6.5625 z m 0,-2.5625 1.0781,0 0,1.375 -1.0781,0 0,-1.375 z m 8.8027,5.1562 0,3.9688 -1.0781,0 0,-3.9219 q 0,-0.9375 -0.3672,-1.3984 -0.3672,-0.461 -1.0859,-0.461 -0.875,0 -1.3829,0.5547 -0.5078,0.5547 -0.5078,1.5234 l 0,3.7032 -1.0781,0 0,-6.5625 1.0781,0 0,1.0156 q 0.3907,-0.5938 0.9141,-0.8828 0.5234,-0.2891 1.2109,-0.2891 1.125,0 1.711,0.6953 0.5859,0.6953 0.5859,2.0547 z m 6.4649,0.6094 q 0,-1.1719 -0.4844,-1.8125 -0.4844,-0.6406 -1.3594,-0.6406 -0.8594,0 -1.3437,0.6406 -0.4844,0.6406 -0.4844,1.8125 0,1.1719 0.4844,1.8125 0.4843,0.6406 1.3437,0.6406 0.875,0 1.3594,-0.6406 0.4844,-0.6406 0.4844,-1.8125 z m 1.0781,2.5469 q 0,1.6718 -0.7422,2.4922 -0.7422,0.8203 -2.2891,0.8203 -0.5625,0 -1.0703,-0.086 -0.5078,-0.0859 -0.9765,-0.2578 l 0,-1.0469 q 0.4687,0.25 0.9375,0.375 0.4687,0.125 0.9375,0.125 1.0625,0 1.5937,-0.5546 0.5313,-0.5547 0.5313,-1.6797 l 0,-0.5313 q -0.3438,0.5781 -0.8594,0.8672 -0.5156,0.2891 -1.25,0.2891 -1.2031,0 -1.9453,-0.9219 -0.7422,-0.9219 -0.7422,-2.4375 0,-1.5156 0.7422,-2.4375 0.7422,-0.9219 1.9453,-0.9219 0.7344,0 1.25,0.2891 0.5156,0.289 0.8594,0.8672 l 0,-1 1.0781,0 0,5.75 z"
         style="fill:#000000;stroke:none"
         transform="translate(868.8347,125.8503)"
         id="path130"
         clip-path="url(#clipPath8)"
         inkscape:connector-curvature="0" />
    </g>
    <g
       style="font-family:sans-serif;stroke-width:2;text-rendering:optimizeLegibility"
       transform="matrix(1.3333,0,0,1.3333,744.66333,192.65713)"
       id="g132">
      <path
         d="m 1.0156,-2.5938 0,-3.9687 1.0782,0 0,3.9375 q 0,0.9219 0.3671,1.3906 0.3672,0.4688 1.086,0.4688 0.875,0 1.3828,-0.5547 0.5078,-0.5547 0.5078,-1.5235 l 0,-3.7187 1.0781,0 0,6.5625 -1.0781,0 0,-1.0156 q -0.3906,0.6094 -0.9063,0.8984 -0.5156,0.2891 -1.2031,0.2891 -1.1406,0 -1.7265,-0.7031 -0.586,-0.7032 -0.586,-2.0626 z m 2.7188,-4.125 0,0 z m 10.4648,2.75 0,3.9688 -1.0781,0 0,-3.9219 q 0,-0.9375 -0.3672,-1.3984 -0.3672,-0.4609 -1.0859,-0.4609 -0.875,0 -1.3828,0.5546 -0.5079,0.5547 -0.5079,1.5235 l 0,3.7031 -1.0781,0 0,-6.5625 1.0781,0 0,1.0156 q 0.3907,-0.5937 0.9141,-0.8828 0.5234,-0.2891 1.2109,-0.2891 1.125,0 1.711,0.6954 0.5859,0.6953 0.5859,2.0546 z m 2.1367,-5.1562 1.0782,0 0,9.125 -1.0782,0 0,-9.125 z m 5.8809,3.3125 q -0.8594,0 -1.3672,0.6797 -0.5078,0.6797 -0.5078,1.8516 0,1.1874 0.5,1.8593 0.5,0.6719 1.375,0.6719 0.8594,0 1.3672,-0.6797 0.5078,-0.6797 0.5078,-1.8515 0,-1.1563 -0.5078,-1.8438 -0.5078,-0.6875 -1.3672,-0.6875 z m 0,-0.9063 q 1.4062,0 2.2109,0.9141 0.8047,0.9141 0.8047,2.5235 0,1.6093 -0.8047,2.5312 -0.8047,0.9219 -2.2109,0.9219 -1.4063,0 -2.2109,-0.9219 -0.8047,-0.9219 -0.8047,-2.5312 0,-1.6094 0.8047,-2.5235 0.8046,-0.9141 2.2109,-0.9141 z m 9.5293,0.4063 0,1.0156 q -0.4688,-0.2656 -0.9219,-0.3906 -0.4531,-0.125 -0.9219,-0.125 -1.0625,0 -1.6406,0.6641 -0.5781,0.664 -0.5781,1.8672 0,1.2031 0.5781,1.8671 0.5781,0.6641 1.6406,0.6641 0.4688,0 0.9219,-0.125 Q 31.2773,-1 31.7461,-1.25 l 0,1 q -0.4531,0.2031 -0.9375,0.3125 -0.4844,0.1094 -1.0313,0.1094 -1.4843,0 -2.3593,-0.9297 -0.875,-0.9297 -0.875,-2.5234 0,-1.5938 0.8828,-2.5157 0.8828,-0.9219 2.4297,-0.9219 0.4843,0 0.9609,0.1016 0.4766,0.1016 0.9297,0.3047 z m 1.832,-2.8125 1.0781,0 0,5.3906 3.2188,-2.8281 1.375,0 L 35.7656,-3.5 39.4062,0 38,0 l -3.3438,-3.2031 0,3.2031 -1.0781,0 0,-9.125 z"
         style="stroke:none"
         id="path134"
         clip-path="url(#clipPath9)"
         inkscape:connector-curvature="0" />
    </g>
    <g
       style="font-family:sans-serif;text-rendering:optimizeLegibility"
       transform="matrix(1.3333,0,0,1.3333,23.4031,44.6667)"
       id="g136">
      <path
         d="M 505.6694,123.9384 C 543,116 598,116 635,123.9011"
         style="fill:none"
         id="path138"
         clip-path="url(#clipPath2)"
         inkscape:connector-curvature="0" />
      <line
         x1="635"
         x2="623.5838"
         y1="123.9011"
         style="fill:none"
         y2="127.5986"
         id="line140"
         clip-path="url(#clipPath2)" />
      <line
         x1="635"
         x2="626.0899"
         y1="123.9011"
         style="fill:none"
         y2="115.8632"
         id="line142"
         clip-path="url(#clipPath2)" />
    </g>
    <g
       style="font-family:sans-serif;text-rendering:optimizeLegibility"
       transform="matrix(1.3333,0,0,1.3333,569.35052,387.40213)"
       id="g144">
      <path
         d="m 6.75,-3.5469 0,0.5157 -4.9688,0 q 0.0782,1.125 0.6797,1.7031 0.6016,0.5781 1.6641,0.5781 0.625,0 1.2109,-0.1484 0.586,-0.1485 1.1641,-0.461 l 0,1.0313 Q 5.9062,-0.0938 5.2969,0.0391 4.6875,0.1719 4.0625,0.1719 2.5,0.1719 1.5781,-0.7422 0.6562,-1.6562 0.6562,-3.2188 q 0,-1.6093 0.875,-2.5546 0.875,-0.9454 2.3438,-0.9454 1.3281,0 2.1016,0.8516 Q 6.75,-5.0156 6.75,-3.5469 Z M 5.6719,-3.875 q -0.0157,-0.875 -0.5,-1.4062 -0.4844,-0.5313 -1.2813,-0.5313 -0.9062,0 -1.4453,0.5156 -0.5391,0.5157 -0.6172,1.4375 L 5.6719,-3.875 Z m 8.3047,-0.0938 0,3.9688 -1.0782,0 0,-3.9219 q 0,-0.9375 -0.3672,-1.3984 -0.3671,-0.4609 -1.0859,-0.4609 -0.875,0 -1.3828,0.5546 -0.5078,0.5547 -0.5078,1.5235 l 0,3.7031 -1.0781,0 0,-6.5625 1.0781,0 0,1.0156 q 0.3906,-0.5937 0.9141,-0.8828 0.5234,-0.2891 1.2109,-0.2891 1.125,0 1.7109,0.6954 0.586,0.6953 0.586,2.0546 z m 6.4648,-1.5937 0,-3.5625 1.0781,0 0,9.125 -1.0781,0 0,-0.9844 q -0.3437,0.5782 -0.8594,0.8672 -0.5156,0.2891 -1.25,0.2891 -1.1875,0 -1.9375,-0.9531 -0.75,-0.9532 -0.75,-2.5 0,-1.5469 0.75,-2.4922 0.75,-0.9454 1.9375,-0.9454 0.7344,0 1.25,0.2813 0.5157,0.2813 0.8594,0.875 z m -3.6719,2.2813 q 0,1.1874 0.4844,1.8671 0.4844,0.6797 1.3438,0.6797 0.8593,0 1.3515,-0.6797 0.4922,-0.6797 0.4922,-1.8671 0,-1.1876 -0.4922,-1.8594 -0.4922,-0.6719 -1.3515,-0.6719 -0.8594,0 -1.3438,0.6719 -0.4844,0.6718 -0.4844,1.8594 z m 13.3223,-2.5313 q -0.8594,0 -1.3672,0.6797 -0.5078,0.6797 -0.5078,1.8516 0,1.1874 0.5,1.8593 0.5,0.6719 1.375,0.6719 0.8594,0 1.3672,-0.6797 0.5078,-0.6797 0.5078,-1.8515 0,-1.1563 -0.5078,-1.8438 -0.5078,-0.6875 -1.3672,-0.6875 z m 0,-0.9063 q 1.4062,0 2.2109,0.9141 0.8047,0.9141 0.8047,2.5235 0,1.6093 -0.8047,2.5312 -0.8047,0.9219 -2.2109,0.9219 -1.4063,0 -2.2109,-0.9219 -0.8047,-0.9219 -0.8047,-2.5312 0,-1.6094 0.8047,-2.5235 0.8046,-0.9141 2.2109,-0.9141 z m 8.123,-2.4062 0,0.9062 -1.0312,0 q -0.5781,0 -0.8047,0.2344 -0.2266,0.2344 -0.2266,0.8438 l 0,0.5781 1.7813,0 0,0.8437 -1.7813,0 0,5.7188 -1.0781,0 0,-5.7188 -1.0312,0 0,-0.8437 1.0312,0 0,-0.4531 q 0,-1.0938 0.5078,-1.6016 0.5078,-0.5078 1.6172,-0.5078 l 1.0156,0 z m 8.5235,3.5625 q -0.1875,-0.0937 -0.3985,-0.1484 -0.2109,-0.0547 -0.4765,-0.0547 -0.9063,0 -1.3985,0.5937 -0.4921,0.5938 -0.4921,1.7188 l 0,3.4531 -1.0782,0 0,-6.5625 1.0782,0 0,1.0156 q 0.3437,-0.5937 0.8906,-0.8828 0.5469,-0.2891 1.3281,-0.2891 0.1094,0 0.2422,0.0157 0.1328,0.0156 0.2891,0.0469 l 0.0156,1.0937 z m 1.1211,-1 1.0781,0 0,6.5625 -1.0781,0 0,-6.5625 z m 0,-2.5625 1.0781,0 0,1.375 -1.0781,0 0,-1.375 z m 7.6621,3.5625 0,-3.5625 1.0781,0 0,9.125 -1.0781,0 0,-0.9844 q -0.3438,0.5782 -0.8594,0.8672 -0.5156,0.2891 -1.25,0.2891 -1.1875,0 -1.9375,-0.9531 -0.75,-0.9532 -0.75,-2.5 0,-1.5469 0.75,-2.4922 0.75,-0.9454 1.9375,-0.9454 0.7344,0 1.25,0.2813 0.5156,0.2813 0.8594,0.875 z m -3.6719,2.2813 q 0,1.1874 0.4844,1.8671 0.4844,0.6797 1.3437,0.6797 0.8594,0 1.3516,-0.6797 0.4922,-0.6797 0.4922,-1.8671 0,-1.1876 -0.4922,-1.8594 -0.4922,-0.6719 -1.3516,-0.6719 -0.8593,0 -1.3437,0.6719 -0.4844,0.6718 -0.4844,1.8594 z m 12.5859,-0.2657 0,0.5157 -4.9687,0 q 0.0781,1.125 0.6797,1.7031 0.6015,0.5781 1.664,0.5781 0.625,0 1.211,-0.1484 0.5859,-0.1485 1.164,-0.461 l 0,1.0313 q -0.5937,0.2343 -1.2031,0.3672 -0.6094,0.1328 -1.2344,0.1328 -1.5625,0 -2.4843,-0.9141 -0.9219,-0.914 -0.9219,-2.4766 0,-1.6093 0.875,-2.5546 0.875,-0.9454 2.3437,-0.9454 1.3282,0 2.1016,0.8516 0.7734,0.8516 0.7734,2.3203 z M 63.3574,-3.875 q -0.0156,-0.875 -0.5,-1.4062 -0.4844,-0.5313 -1.2812,-0.5313 -0.9063,0 -1.4453,0.5156 -0.5391,0.5157 -0.6172,1.4375 l 3.8437,-0.0156 z"
         style="stroke:none"
         id="path146"
         clip-path="url(#clipPath10)"
         inkscape:connector-curvature="0" />
    </g>
    <g
       style="font-family:sans-serif;text-rendering:optimizeLegibility"
       transform="matrix(1.3333,0,0,1.3333,23.4031,44.6667)"
       id="g148">
      <path
         d="M 643.7505,174.6694 C 574,250 325,279 199.0159,174.6694"
         style="fill:none"
         id="path150"
         clip-path="url(#clipPath2)"
         inkscape:connector-curvature="0" />
      <line
         x1="199.0159"
         x2="210.8468"
         y1="174.6694"
         style="fill:none"
         y2="176.67661"
         id="line152"
         clip-path="url(#clipPath2)" />
      <line
         x1="199.0159"
         x2="203.1931"
         y1="174.6694"
         style="fill:none"
         y2="185.9189"
         id="line154"
         clip-path="url(#clipPath2)" />
    </g>
    <g
       style="font-family:sans-serif;text-rendering:optimizeLegibility"
       transform="matrix(1.3333,0,0,1.3333,1024.4897,168.7472)"
       id="g156">
      <path
         d="m 6.75,-3.5469 0,0.5157 -4.9688,0 q 0.0782,1.125 0.6797,1.7031 0.6016,0.5781 1.6641,0.5781 0.625,0 1.2109,-0.1484 0.586,-0.1485 1.1641,-0.461 l 0,1.0313 Q 5.9062,-0.0938 5.2969,0.0391 4.6875,0.1719 4.0625,0.1719 2.5,0.1719 1.5781,-0.7422 0.6562,-1.6562 0.6562,-3.2188 q 0,-1.6093 0.875,-2.5546 0.875,-0.9454 2.3438,-0.9454 1.3281,0 2.1016,0.8516 Q 6.75,-5.0156 6.75,-3.5469 Z M 5.6719,-3.875 q -0.0157,-0.875 -0.5,-1.4062 -0.4844,-0.5313 -1.2813,-0.5313 -0.9062,0 -1.4453,0.5156 -0.5391,0.5157 -0.6172,1.4375 L 5.6719,-3.875 Z m 8.3047,-0.0938 0,3.9688 -1.0782,0 0,-3.9219 q 0,-0.9375 -0.3672,-1.3984 -0.3671,-0.4609 -1.0859,-0.4609 -0.875,0 -1.3828,0.5546 -0.5078,0.5547 -0.5078,1.5235 l 0,3.7031 -1.0781,0 0,-6.5625 1.0781,0 0,1.0156 q 0.3906,-0.5937 0.9141,-0.8828 0.5234,-0.2891 1.2109,-0.2891 1.125,0 1.7109,0.6954 0.586,0.6953 0.586,2.0546 z m 6.4648,0.6094 q 0,-1.1718 -0.4844,-1.8125 -0.4843,-0.6406 -1.3593,-0.6406 -0.8594,0 -1.3438,0.6406 -0.4844,0.6407 -0.4844,1.8125 0,1.1719 0.4844,1.8125 0.4844,0.6407 1.3438,0.6407 0.875,0 1.3593,-0.6407 0.4844,-0.6406 0.4844,-1.8125 z m 1.0781,2.5469 q 0,1.6719 -0.7422,2.4922 Q 20.0352,2.5 18.4883,2.5 17.9258,2.5 17.418,2.4141 16.9102,2.3281 16.4414,2.1562 l 0,-1.0468 q 0.4688,0.25 0.9375,0.375 0.4688,0.125 0.9375,0.125 1.0625,0 1.5938,-0.5547 Q 20.4414,0.5 20.4414,-0.625 l 0,-0.5312 Q 20.0977,-0.5781 19.582,-0.2891 19.0664,0 18.332,0 q -1.2031,0 -1.9453,-0.9219 -0.7422,-0.9219 -0.7422,-2.4375 0,-1.5156 0.7422,-2.4375 0.7422,-0.9219 1.9453,-0.9219 0.7344,0 1.25,0.2891 0.5157,0.2891 0.8594,0.8672 l 0,-1 1.0781,0 0,5.75 z m 2.211,-5.75 1.0781,0 0,6.5625 -1.0781,0 0,-6.5625 z m 0,-2.5625 1.0781,0 0,1.375 -1.0781,0 0,-1.375 z m 8.8027,5.1562 0,3.9688 -1.0781,0 0,-3.9219 q 0,-0.9375 -0.3672,-1.3984 -0.3672,-0.4609 -1.0859,-0.4609 -0.875,0 -1.3829,0.5546 -0.5078,0.5547 -0.5078,1.5235 l 0,3.7031 -1.0781,0 0,-6.5625 1.0781,0 0,1.0156 q 0.3907,-0.5937 0.9141,-0.8828 0.5234,-0.2891 1.2109,-0.2891 1.125,0 1.711,0.6954 0.5859,0.6953 0.5859,2.0546 z m 7.7617,0.4219 0,0.5157 -4.9687,0 q 0.0781,1.125 0.6797,1.7031 0.6015,0.5781 1.664,0.5781 0.625,0 1.211,-0.1484 0.5859,-0.1485 1.164,-0.461 l 0,1.0313 q -0.5937,0.2343 -1.2031,0.3672 -0.6094,0.1328 -1.2344,0.1328 -1.5625,0 -2.4844,-0.9141 -0.9218,-0.914 -0.9218,-2.4766 0,-1.6093 0.875,-2.5546 0.875,-0.9454 2.3437,-0.9454 1.3281,0 2.1016,0.8516 0.7734,0.8516 0.7734,2.3203 z M 39.2168,-3.875 q -0.0156,-0.875 -0.5,-1.4062 -0.4844,-0.5313 -1.2813,-0.5313 -0.9062,0 -1.4453,0.5156 -0.539,0.5157 -0.6172,1.4375 l 3.8438,-0.0156 z m 9.1973,-1.9375 q -0.8594,0 -1.3672,0.6797 -0.5078,0.6797 -0.5078,1.8516 0,1.1874 0.5,1.8593 0.5,0.6719 1.375,0.6719 0.8593,0 1.3671,-0.6797 0.5079,-0.6797 0.5079,-1.8515 0,-1.1563 -0.5079,-1.8438 -0.5078,-0.6875 -1.3671,-0.6875 z m 0,-0.9063 q 1.4062,0 2.2109,0.9141 0.8047,0.9141 0.8047,2.5235 0,1.6093 -0.8047,2.5312 -0.8047,0.9219 -2.2109,0.9219 -1.4063,0 -2.211,-0.9219 -0.8047,-0.9219 -0.8047,-2.5312 0,-1.6094 0.8047,-2.5235 0.8047,-0.9141 2.211,-0.9141 z m 10.2636,2.75 0,3.9688 -1.0781,0 0,-3.9219 q 0,-0.9375 -0.3672,-1.3984 -0.3672,-0.4609 -1.0859,-0.4609 -0.875,0 -1.3828,0.5546 -0.5078,0.5547 -0.5078,1.5235 l 0,3.7031 -1.0782,0 0,-6.5625 1.0782,0 0,1.0156 q 0.3906,-0.5937 0.914,-0.8828 0.5235,-0.2891 1.211,-0.2891 1.125,0 1.7109,0.6954 0.5859,0.6953 0.5859,2.0546 z"
         style="stroke:none"
         id="path158"
         clip-path="url(#clipPath11)"
         inkscape:connector-curvature="0" />
    </g>
    <g
       style="font-family:sans-serif;text-rendering:optimizeLegibility"
       transform="matrix(1.3333,0,0,1.3333,23.4031,44.6667)"
       id="g160">
      <path
         d="M 718.6694,116.4263 C 758,101 806,99 848,115.9507"
         style="fill:none"
         id="path162"
         clip-path="url(#clipPath2)"
         inkscape:connector-curvature="0" />
      <line
         x1="848"
         x2="836.11737"
         y1="115.9507"
         style="fill:none"
         y2="117.6253"
         id="line164"
         clip-path="url(#clipPath2)" />
      <line
         x1="848"
         x2="840.60852"
         y1="115.9507"
         style="fill:none"
         y2="106.4974"
         id="line166"
         clip-path="url(#clipPath2)" />
      <circle
         style="fill:#ffffcc;stroke:none;stroke-width:2"
         r="41.834702"
         cx="676.83472"
         cy="293.83469"
         id="circle168"
         clip-path="url(#clipPath2)" />
      <circle
         style="fill:none;stroke-width:2"
         r="41.834702"
         cx="676.83472"
         cy="293.83469"
         id="circle170"
         clip-path="url(#clipPath2)" />
      <path
         d="m 2.3594,3.3574 0,3.2969 1.4844,0 q 0.8281,0 1.2812,-0.4297 Q 5.5781,5.7949 5.5781,4.998 5.5781,4.2168 5.125,3.7871 4.6719,3.3574 3.8438,3.3574 l -1.4844,0 z m -1.1875,-0.9687 2.6719,0 q 1.4843,0 2.2343,0.664 0.75,0.6641 0.75,1.9453 0,1.2969 -0.75,1.961 -0.75,0.664 -2.2343,0.664 l -1.4844,0 0,3.5157 -1.1875,0 0,-8.75 z m 10.1738,5.4531 q -1.2969,0 -1.8047,0.2969 -0.5078,0.2968 -0.5078,1.0156 0,0.5781 0.3828,0.9141 0.3828,0.3359 1.0235,0.3359 0.9062,0 1.4453,-0.6328 0.539,-0.6328 0.539,-1.6953 l 0,-0.2344 -1.0781,0 z m 2.1563,-0.4531 0,3.75 -1.0782,0 0,-1 q -0.375,0.5937 -0.9218,0.8828 -0.5469,0.289 -1.3438,0.289 -1.0156,0 -1.6094,-0.5703 Q 7.9551,10.1699 7.9551,9.2324 7.9551,8.123 8.6973,7.5605 9.4395,6.998 10.9082,6.998 l 1.5156,0 0,-0.1093 q 0,-0.75 -0.4922,-1.1563 -0.4921,-0.4062 -1.3671,-0.4062 -0.5625,0 -1.1016,0.1406 Q 8.9238,5.6074 8.4395,5.873 l 0,-1 q 0.5937,-0.2343 1.1484,-0.3437 0.5547,-0.1094 1.0859,-0.1094 1.4219,0 2.125,0.7344 0.7032,0.7344 0.7032,2.2344 z M 19.5273,5.5762 Q 19.3398,5.4824 19.1289,5.4277 18.918,5.373 18.6523,5.373 q -0.9062,0 -1.3984,0.5938 -0.4922,0.5937 -0.4922,1.7187 l 0,3.4532 -1.0781,0 0,-6.5625 1.0781,0 0,1.0156 q 0.3438,-0.5938 0.8906,-0.8828 0.5469,-0.2891 1.3282,-0.2891 0.1093,0 0.2422,0.0156 0.1328,0.0157 0.289,0.0469 l 0.0156,1.0938 z m 1.0899,-3.5625 1.0781,0 0,5.3906 3.2188,-2.8281 1.375,0 -3.4844,3.0625 3.6406,3.5 -1.4062,0 -3.3438,-3.2032 0,3.2032 -1.0781,0 0,-9.125 z m 12.6055,5.5781 0,0.5156 -4.9688,0 q 0.0781,1.125 0.6797,1.7031 0.6016,0.5782 1.6641,0.5782 0.625,0 1.2109,-0.1485 0.5859,-0.1484 1.1641,-0.4609 l 0,1.0312 q -0.5938,0.2344 -1.2032,0.3672 -0.6093,0.1328 -1.2343,0.1328 -1.5625,0 -2.4844,-0.914 -0.9219,-0.9141 -0.9219,-2.4766 0,-1.6094 0.875,-2.5547 0.875,-0.9453 2.3438,-0.9453 1.3281,0 2.1015,0.8516 0.7735,0.8515 0.7735,2.3203 z M 32.1445,7.2637 q -0.0156,-0.875 -0.5,-1.4063 -0.4843,-0.5312 -1.2812,-0.5312 -0.9063,0 -1.4453,0.5156 -0.5391,0.5156 -0.6172,1.4375 l 3.8437,-0.0156 z m 7.1641,-1.6875 0,-3.5625 1.0781,0 0,9.125 -1.0781,0 0,-0.9844 q -0.3438,0.5781 -0.8594,0.8672 -0.5156,0.289 -1.25,0.289 -1.1875,0 -1.9375,-0.9531 -0.75,-0.9531 -0.75,-2.5 0,-1.5469 0.75,-2.4922 0.75,-0.9453 1.9375,-0.9453 0.7344,0 1.25,0.2813 0.5156,0.2812 0.8594,0.875 z m -3.6719,2.2812 q 0,1.1875 0.4844,1.8672 0.4844,0.6797 1.3437,0.6797 0.8594,0 1.3516,-0.6797 0.4922,-0.6797 0.4922,-1.8672 0,-1.1875 -0.4922,-1.8594 -0.4922,-0.6718 -1.3516,-0.6718 -0.8593,0 -1.3437,0.6718 -0.4844,0.6719 -0.4844,1.8594 z"
         style="stroke:none;stroke-width:2"
         transform="translate(654.8347,279.866)"
         id="path172"
         clip-path="url(#clipPath12)"
         inkscape:connector-curvature="0" />
    </g>
    <g
       style="font-family:sans-serif;stroke-width:2;text-rendering:optimizeLegibility"
       transform="matrix(1.3333,0,0,1.3333,896.49421,417.81204)"
       id="g174">
      <path
         d="m 4.9863,16.3574 1.1875,0 0,8.75 -1.1875,0 0,-8.75 z m 8.961,4.7813 0,3.9687 -1.0782,0 0,-3.9219 q 0,-0.9375 -0.3671,-1.3984 -0.3672,-0.4609 -1.086,-0.4609 -0.875,0 -1.3828,0.5547 -0.5078,0.5546 -0.5078,1.5234 l 0,3.7031 -1.0781,0 0,-6.5625 1.0781,0 0,1.0156 q 0.3906,-0.5937 0.9141,-0.8828 0.5234,-0.289 1.2109,-0.289 1.125,0 1.7109,0.6953 0.586,0.6953 0.586,2.0547 z m 5.8418,1.375 0,-3.9688 1.0781,0 0,3.9375 q 0,0.9219 0.3672,1.3906 0.3672,0.4688 1.0859,0.4688 0.875,0 1.3828,-0.5547 0.5078,-0.5547 0.5078,-1.5234 l 0,-3.7188 1.0782,0 0,6.5625 -1.0782,0 0,-1.0156 q -0.3906,0.6094 -0.9062,0.8984 -0.5156,0.2891 -1.2031,0.2891 -1.1407,0 -1.7266,-0.7031 -0.5859,-0.7032 -0.5859,-2.0625 z m 2.7187,-4.125 0,0 z m 9.1836,0.3437 0,1.0313 q -0.4531,-0.2344 -0.9453,-0.3516 -0.4922,-0.1172 -1.0234,-0.1172 -0.7969,0 -1.2032,0.2422 -0.4062,0.2422 -0.4062,0.7422 0,0.375 0.289,0.5859 0.2891,0.211 1.1641,0.3985 l 0.3594,0.0937 q 1.1562,0.2344 1.6406,0.6875 0.4844,0.4531 0.4844,1.25 0,0.9219 -0.7266,1.4531 -0.7265,0.5313 -1.9922,0.5313 -0.5312,0 -1.1015,-0.1016 -0.5703,-0.1015 -1.1953,-0.3047 l 0,-1.125 q 0.5937,0.3125 1.1718,0.4688 0.5782,0.1562 1.1563,0.1562 0.75,0 1.164,-0.2578 0.4141,-0.2578 0.4141,-0.7422 0,-0.4375 -0.2969,-0.6718 -0.2968,-0.2344 -1.2968,-0.4532 l -0.375,-0.0781 q -1,-0.2187 -1.4454,-0.6562 -0.4453,-0.4375 -0.4453,-1.1875 0,-0.9375 0.6563,-1.4375 0.6562,-0.5 1.8594,-0.5 0.5937,0 1.125,0.0859 0.5312,0.0859 0.9687,0.2578 z m 7.6895,2.8281 0,0.5157 -4.9688,0 q 0.0781,1.125 0.6797,1.7031 0.6016,0.5781 1.6641,0.5781 0.625,0 1.2109,-0.1484 0.5859,-0.1485 1.1641,-0.461 l 0,1.0313 q -0.5938,0.2344 -1.2032,0.3672 -0.6093,0.1328 -1.2343,0.1328 -1.5625,0 -2.4844,-0.9141 -0.9219,-0.914 -0.9219,-2.4765 0,-1.6094 0.875,-2.5547 0.875,-0.9453 2.3438,-0.9453 1.3281,0 2.1015,0.8515 0.7735,0.8516 0.7735,2.3203 z m -1.0782,-0.3281 q -0.0156,-0.875 -0.5,-1.4062 -0.4843,-0.5313 -1.2812,-0.5313 -0.9063,0 -1.4453,0.5156 -0.5391,0.5157 -0.6172,1.4375 l 3.8437,-0.0156 z"
         style="stroke:none"
         id="path176"
         clip-path="url(#clipPath12)"
         inkscape:connector-curvature="0" />
    </g>
    <g
       style="font-family:sans-serif;stroke-width:2;text-rendering:optimizeLegibility"
       transform="matrix(1.3333,0,0,1.3333,961.53045,336.62513)"
       id="g178">
      <path
         d="m 5.3125,-6.375 0,1.0312 Q 4.8594,-5.5781 4.3672,-5.6953 3.875,-5.8125 3.3438,-5.8125 q -0.7969,0 -1.2032,0.2422 -0.4062,0.2422 -0.4062,0.7422 0,0.375 0.289,0.5859 0.2891,0.211 1.1641,0.3984 L 3.5469,-3.75 q 1.1562,0.2344 1.6406,0.6875 0.4844,0.4531 0.4844,1.25 0,0.9219 -0.7266,1.4531 -0.7265,0.5313 -1.9922,0.5313 -0.5312,0 -1.1015,-0.1016 -0.5704,-0.1015 -1.1954,-0.3047 l 0,-1.125 q 0.5938,0.3125 1.1719,0.4688 0.5781,0.1562 1.1563,0.1562 0.75,0 1.164,-0.2578 0.4141,-0.2578 0.4141,-0.7422 0,-0.4375 -0.2969,-0.6718 -0.2968,-0.2344 -1.2968,-0.4532 l -0.375,-0.0781 q -1,-0.2187 -1.4454,-0.6563 -0.4453,-0.4374 -0.4453,-1.1874 0,-0.9376 0.6563,-1.4376 0.6562,-0.5 1.8594,-0.5 0.5937,0 1.125,0.086 0.5312,0.0859 0.9687,0.2578 z m 3.1426,-2.0469 0,1.8594 2.2187,0 0,0.8437 -2.2187,0 0,3.5626 q 0,0.7968 0.2187,1.0234 0.2188,0.2266 0.8907,0.2266 l 1.1093,0 0,0.9062 -1.1093,0 Q 8.3145,0 7.8379,-0.4688 7.3613,-0.9375 7.3613,-2.1562 l 0,-3.5626 -0.7812,0 0,-0.8437 0.7812,0 0,-1.8594 1.0938,0 z m 6.1738,2.6094 q -0.8594,0 -1.3672,0.6797 -0.5078,0.6797 -0.5078,1.8516 0,1.1874 0.5,1.8593 0.5,0.6719 1.375,0.6719 0.8594,0 1.3672,-0.6797 0.5078,-0.6797 0.5078,-1.8515 0,-1.1563 -0.5078,-1.8438 -0.5078,-0.6875 -1.3672,-0.6875 z m 0,-0.9063 q 1.4063,0 2.2109,0.9141 0.8047,0.9141 0.8047,2.5235 0,1.6093 -0.8047,2.5312 -0.8046,0.9219 -2.2109,0.9219 -1.4062,0 -2.2109,-0.9219 -0.8047,-0.9219 -0.8047,-2.5312 0,-1.6094 0.8047,-2.5235 0.8047,-0.9141 2.2109,-0.9141 z m 5.8418,5.7344 0,3.4844 -1.0781,0 0,-9.0625 1.0781,0 0,1 q 0.3438,-0.5937 0.8594,-0.875 0.5156,-0.2813 1.2344,-0.2813 1.2031,0 1.9531,0.9454 0.75,0.9453 0.75,2.4922 0,1.5468 -0.75,2.5 -0.75,0.9531 -1.9531,0.9531 -0.7188,0 -1.2344,-0.2891 -0.5156,-0.289 -0.8594,-0.8672 z m 3.6719,-2.2968 q 0,-1.1876 -0.4922,-1.8594 -0.4922,-0.6719 -1.3359,-0.6719 -0.8594,0 -1.3516,0.6719 -0.4922,0.6718 -0.4922,1.8594 0,1.1874 0.4922,1.8671 0.4922,0.6797 1.3516,0.6797 0.8437,0 1.3359,-0.6797 0.4922,-0.6797 0.4922,-1.8671 z"
         style="stroke:none"
         id="path180"
         clip-path="url(#clipPath13)"
         inkscape:connector-curvature="0" />
    </g>
    <g
       style="font-family:sans-serif;text-rendering:optimizeLegibility"
       transform="matrix(1.3333,0,0,1.3333,23.4031,44.6667)"
       id="g182">
      <path
         d="M 690.6341,174.6694 C 698,197 697,226 689.2709,252"
         style="fill:none"
         id="path184"
         clip-path="url(#clipPath2)"
         inkscape:connector-curvature="0" />
      <line
         x1="689.271"
         x2="686.48102"
         y1="252"
         style="fill:none"
         y2="240.3288"
         id="line186"
         clip-path="url(#clipPath2)" />
      <line
         x1="689.271"
         x2="697.98352"
         y1="252"
         style="fill:none"
         y2="243.7482"
         id="line188"
         clip-path="url(#clipPath2)" />
      <path
         d="m 2.2031,2.7168 0,1.8594 2.2188,0 0,0.8437 -2.2188,0 0,3.5625 q 0,0.7969 0.2188,1.0235 0.2187,0.2265 0.8906,0.2265 l 1.1094,0 0,0.9063 -1.1094,0 q -1.25,0 -1.7266,-0.4688 Q 1.1094,10.2012 1.1094,8.9824 l 0,-3.5625 -0.7813,0 0,-0.8437 0.7813,0 0,-1.8594 1.0937,0 z m 3.627,1.8594 1.0781,0 0,6.5625 -1.0781,0 0,-6.5625 z m 0,-2.5625 1.0781,0 0,1.375 -1.0781,0 0,-1.375 z m 8.4433,3.8281 q 0.4063,-0.7344 0.9688,-1.0781 0.5625,-0.3438 1.3281,-0.3438 1.0313,0 1.5859,0.7188 0.5547,0.7187 0.5547,2.0312 l 0,3.9688 -1.0781,0 0,-3.9219 q 0,-0.9531 -0.3359,-1.4063 -0.336,-0.4531 -1.0235,-0.4531 -0.8437,0 -1.3281,0.5547 -0.4844,0.5547 -0.4844,1.5234 l 0,3.7032 -1.0781,0 0,-3.9219 q 0,-0.9531 -0.3359,-1.4063 -0.336,-0.4531 -1.0391,-0.4531 -0.8281,0 -1.3125,0.5547 -0.4844,0.5547 -0.4844,1.5234 l 0,3.7032 -1.0781,0 0,-6.5625 1.0781,0 0,1.0156 q 0.375,-0.5938 0.8907,-0.8828 0.5156,-0.2891 1.2187,-0.2891 0.7188,0 1.2188,0.3594 0.5,0.3594 0.7343,1.0625 z m 12.2051,1.75 0,0.5156 -4.9687,0 q 0.0781,1.125 0.6797,1.7031 0.6015,0.5782 1.664,0.5782 0.625,0 1.211,-0.1485 0.5859,-0.1484 1.164,-0.4609 l 0,1.0312 q -0.5937,0.2344 -1.2031,0.3672 -0.6094,0.1328 -1.2344,0.1328 -1.5625,0 -2.4844,-0.914 -0.9218,-0.9141 -0.9218,-2.4766 0,-1.6094 0.875,-2.5547 0.875,-0.9453 2.3437,-0.9453 1.3281,0 2.1016,0.8516 0.7734,0.8515 0.7734,2.3203 z M 25.4004,7.2637 q -0.0156,-0.875 -0.5,-1.4063 -0.4844,-0.5312 -1.2813,-0.5312 -0.9062,0 -1.4453,0.5156 -0.539,0.5156 -0.6172,1.4375 l 3.8438,-0.0156 z m 12.2754,0.3281 0,0.5156 -4.9688,0 q 0.0782,1.125 0.6797,1.7031 0.6016,0.5782 1.6641,0.5782 0.625,0 1.2109,-0.1485 0.586,-0.1484 1.1641,-0.4609 l 0,1.0312 q -0.5938,0.2344 -1.2031,0.3672 -0.6094,0.1328 -1.2344,0.1328 -1.5625,0 -2.4844,-0.914 -0.9219,-0.9141 -0.9219,-2.4766 0,-1.6094 0.875,-2.5547 0.875,-0.9453 2.3438,-0.9453 1.3281,0 2.1015,0.8516 0.7735,0.8515 0.7735,2.3203 z M 36.5977,7.2637 q -0.0157,-0.875 -0.5,-1.4063 -0.4844,-0.5312 -1.2813,-0.5312 -0.9062,0 -1.4453,0.5156 -0.5391,0.5156 -0.6172,1.4375 l 3.8438,-0.0156 z m 8.3046,-2.6875 -2.375,3.1875 2.4844,3.375 -1.2656,0 -1.9063,-2.5782 -1.9062,2.5782 -1.2813,0 2.5469,-3.4375 -2.3281,-3.125 1.2656,0 1.75,2.3437 1.7344,-2.3437 1.2812,0 z m 2.6797,5.5781 0,3.4844 -1.0781,0 0,-9.0625 1.0781,0 0,1 q 0.3438,-0.5938 0.8594,-0.875 0.5156,-0.2813 1.2344,-0.2813 1.2031,0 1.9531,0.9453 0.75,0.9453 0.75,2.4922 0,1.5469 -0.75,2.5 -0.75,0.9531 -1.9531,0.9531 -0.7188,0 -1.2344,-0.289 -0.5156,-0.2891 -0.8594,-0.8672 z m 3.6719,-2.2969 q 0,-1.1875 -0.4922,-1.8594 -0.4922,-0.6718 -1.3359,-0.6718 -0.8594,0 -1.3516,0.6718 -0.4922,0.6719 -0.4922,1.8594 0,1.1875 0.4922,1.8672 0.4922,0.6797 1.3516,0.6797 0.8437,0 1.3359,-0.6797 0.4922,-0.6797 0.4922,-1.8672 z m 2.8984,-3.2812 1.0782,0 0,6.5625 -1.0782,0 0,-6.5625 z m 0,-2.5625 1.0782,0 0,1.375 -1.0782,0 0,-1.375 z m 7.1465,3.5625 Q 61.1113,5.4824 60.9004,5.4277 60.6895,5.373 60.4238,5.373 q -0.9062,0 -1.3984,0.5938 -0.4922,0.5937 -0.4922,1.7187 l 0,3.4532 -1.0781,0 0,-6.5625 1.0781,0 0,1.0156 Q 58.877,4.998 59.4238,4.709 59.9707,4.4199 60.752,4.4199 q 0.1093,0 0.2421,0.0156 0.1329,0.0157 0.2891,0.0469 l 0.0156,1.0938 z m 6.7461,2.0156 0,0.5156 -4.9687,0 q 0.0781,1.125 0.6797,1.7031 0.6015,0.5782 1.664,0.5782 0.625,0 1.211,-0.1485 0.5859,-0.1484 1.164,-0.4609 l 0,1.0312 q -0.5937,0.2344 -1.2031,0.3672 -0.6094,0.1328 -1.2344,0.1328 -1.5625,0 -2.4844,-0.914 -0.9218,-0.9141 -0.9218,-2.4766 0,-1.6094 0.875,-2.5547 0.875,-0.9453 2.3437,-0.9453 1.3281,0 2.1016,0.8516 0.7734,0.8515 0.7734,2.3203 z M 66.9668,7.2637 q -0.0156,-0.875 -0.5,-1.4063 -0.4844,-0.5312 -1.2813,-0.5312 -0.9062,0 -1.4453,0.5156 -0.539,0.5156 -0.6172,1.4375 l 3.8438,-0.0156 z m 7.1641,-1.6875 0,-3.5625 1.0781,0 0,9.125 -1.0781,0 0,-0.9844 q -0.3438,0.5781 -0.8594,0.8672 -0.5156,0.289 -1.25,0.289 -1.1875,0 -1.9375,-0.9531 -0.75,-0.9531 -0.75,-2.5 0,-1.5469 0.75,-2.4922 0.75,-0.9453 1.9375,-0.9453 0.7344,0 1.25,0.2813 0.5156,0.2812 0.8594,0.875 z M 70.459,7.8574 q 0,1.1875 0.4844,1.8672 0.4843,0.6797 1.3437,0.6797 0.8594,0 1.3516,-0.6797 0.4922,-0.6797 0.4922,-1.8672 0,-1.1875 -0.4922,-1.8594 -0.4922,-0.6718 -1.3516,-0.6718 -0.8594,0 -1.3437,0.6718 -0.4844,0.6719 -0.4844,1.8594 z m 12.6972,-5.4687 1,0 -3.0468,9.8593 -1,0 3.0468,-9.8593 z m 11.5606,5.2031 0,0.5156 -4.9688,0 q 0.0782,1.125 0.6797,1.7031 0.6016,0.5782 1.6641,0.5782 0.625,0 1.2109,-0.1485 0.586,-0.1484 1.1641,-0.4609 l 0,1.0312 q -0.5938,0.2344 -1.2031,0.3672 -0.6094,0.1328 -1.2344,0.1328 -1.5625,0 -2.4844,-0.914 -0.9219,-0.9141 -0.9219,-2.4766 0,-1.6094 0.875,-2.5547 0.875,-0.9453 2.3438,-0.9453 1.3281,0 2.1016,0.8516 0.7734,0.8515 0.7734,2.3203 z M 93.6387,7.2637 q -0.0157,-0.875 -0.5,-1.4063 -0.4844,-0.5312 -1.2813,-0.5312 -0.9062,0 -1.4453,0.5156 -0.5391,0.5156 -0.6172,1.4375 l 3.8438,-0.0156 z m 8.3047,-0.0938 0,3.9688 -1.0782,0 0,-3.9219 q 0,-0.9375 -0.3672,-1.3984 -0.3671,-0.461 -1.0859,-0.461 -0.875,0 -1.3828,0.5547 -0.5078,0.5547 -0.5078,1.5234 l 0,3.7032 -1.0781,0 0,-6.5625 1.0781,0 0,1.0156 q 0.3906,-0.5938 0.914,-0.8828 0.5235,-0.2891 1.211,-0.2891 1.125,0 1.7109,0.6953 0.586,0.6953 0.586,2.0547 z m 6.4648,-1.5937 0,-3.5625 1.0781,0 0,9.125 -1.0781,0 0,-0.9844 q -0.3437,0.5781 -0.8594,0.8672 -0.5156,0.289 -1.25,0.289 -1.1875,0 -1.9375,-0.9531 -0.75,-0.9531 -0.75,-2.5 0,-1.5469 0.75,-2.4922 0.75,-0.9453 1.9375,-0.9453 0.7344,0 1.25,0.2813 0.5157,0.2812 0.8594,0.875 z m -3.6719,2.2812 q 0,1.1875 0.4844,1.8672 0.4844,0.6797 1.3438,0.6797 0.8593,0 1.3515,-0.6797 0.4922,-0.6797 0.4922,-1.8672 0,-1.1875 -0.4922,-1.8594 -0.4922,-0.6718 -1.3515,-0.6718 -0.8594,0 -1.3438,0.6718 -0.4844,0.6719 -0.4844,1.8594 z m 13.3223,-2.5312 q -0.8594,0 -1.3672,0.6797 -0.5078,0.6796 -0.5078,1.8515 0,1.1875 0.5,1.8594 0.5,0.6719 1.375,0.6719 0.8594,0 1.3672,-0.6797 0.5078,-0.6797 0.5078,-1.8516 0,-1.1562 -0.5078,-1.8437 -0.5078,-0.6875 -1.3672,-0.6875 z m 0,-0.9063 q 1.4062,0 2.2109,0.9141 0.8047,0.914 0.8047,2.5234 0,1.6094 -0.8047,2.5313 -0.8047,0.9218 -2.2109,0.9218 -1.4063,0 -2.2109,-0.9218 -0.8047,-0.9219 -0.8047,-2.5313 0,-1.6094 0.8047,-2.5234 0.8046,-0.9141 2.2109,-0.9141 z m 8.123,-2.4062 0,0.9062 -1.0312,0 q -0.5781,0 -0.8047,0.2344 -0.2266,0.2344 -0.2266,0.8437 l 0,0.5782 1.7813,0 0,0.8437 -1.7813,0 0,5.7188 -1.0781,0 0,-5.7188 -1.0312,0 0,-0.8437 1.0312,0 0,-0.4532 q 0,-1.0937 0.5078,-1.6015 0.5078,-0.5078 1.6172,-0.5078 l 1.0156,0 z m 8.5235,3.5625 q -0.1875,-0.0938 -0.3985,-0.1485 -0.2109,-0.0547 -0.4765,-0.0547 -0.9063,0 -1.3985,0.5938 -0.4921,0.5937 -0.4921,1.7187 l 0,3.4532 -1.0782,0 0,-6.5625 1.0782,0 0,1.0156 q 0.3437,-0.5938 0.8906,-0.8828 0.5469,-0.2891 1.3281,-0.2891 0.1094,0 0.2422,0.0156 0.1328,0.0157 0.2891,0.0469 l 0.0156,1.0938 z m 1.1211,-1 1.0781,0 0,6.5625 -1.0781,0 0,-6.5625 z m 0,-2.5625 1.0781,0 0,1.375 -1.0781,0 0,-1.375 z m 7.6621,3.5625 0,-3.5625 1.0781,0 0,9.125 -1.0781,0 0,-0.9844 q -0.3438,0.5781 -0.8594,0.8672 -0.5156,0.289 -1.25,0.289 -1.1875,0 -1.9375,-0.9531 -0.75,-0.9531 -0.75,-2.5 0,-1.5469 0.75,-2.4922 0.75,-0.9453 1.9375,-0.9453 0.7344,0 1.25,0.2813 0.5156,0.2812 0.8594,0.875 z m -3.6719,2.2812 q 0,1.1875 0.4844,1.8672 0.4844,0.6797 1.3437,0.6797 0.8594,0 1.3516,-0.6797 0.4922,-0.6797 0.4922,-1.8672 0,-1.1875 -0.4922,-1.8594 -0.4922,-0.6718 -1.3516,-0.6718 -0.8593,0 -1.3437,0.6718 -0.4844,0.6719 -0.4844,1.8594 z m 12.5859,-0.2656 0,0.5156 -4.9687,0 q 0.0781,1.125 0.6797,1.7031 0.6015,0.5782 1.664,0.5782 0.625,0 1.211,-0.1485 0.5859,-0.1484 1.164,-0.4609 l 0,1.0312 q -0.5937,0.2344 -1.2031,0.3672 -0.6094,0.1328 -1.2344,0.1328 -1.5625,0 -2.4843,-0.914 -0.9219,-0.9141 -0.9219,-2.4766 0,-1.6094 0.875,-2.5547 0.875,-0.9453 2.3437,-0.9453 1.3282,0 2.1016,0.8516 0.7734,0.8515 0.7734,2.3203 z m -1.0781,-0.3281 q -0.0156,-0.875 -0.5,-1.4063 -0.4844,-0.5312 -1.2812,-0.5312 -0.9063,0 -1.4453,0.5156 -0.5391,0.5156 -0.6172,1.4375 l 3.8437,-0.0156 z"
         style="stroke:none"
         transform="translate(305.8766,300.799)"
         id="path190"
         clip-path="url(#clipPath14)"
         inkscape:connector-curvature="0" />
    </g>
    <g
       style="font-family:sans-serif;text-rendering:optimizeLegibility"
       transform="matrix(1.3333,0,0,1.3333,23.4031,44.6667)"
       id="g192">
      <path
         d="M 635,294.4724 C 174,301.5 174,301.5 172.0131,174.6694"
         style="fill:none"
         id="path194"
         clip-path="url(#clipPath2)"
         inkscape:connector-curvature="0" />
      <line
         x1="172.01311"
         x2="178.1752"
         y1="174.6694"
         style="fill:none"
         y2="184.96651"
         id="line196"
         clip-path="url(#clipPath2)" />
      <line
         x1="172.01311"
         x2="166.17661"
         y1="174.6694"
         style="fill:none"
         y2="185.1544"
         id="line198"
         clip-path="url(#clipPath2)" />
    </g>
    <g
       style="font-family:sans-serif;text-rendering:optimizeLegibility"
       transform="matrix(1.3333,0,0,1.3333,1024.9897,274.82308)"
       id="g200">
      <path
         d="m 6.75,-3.5469 0,0.5157 -4.9688,0 q 0.0782,1.125 0.6797,1.7031 0.6016,0.5781 1.6641,0.5781 0.625,0 1.2109,-0.1484 0.586,-0.1485 1.1641,-0.461 l 0,1.0313 Q 5.9062,-0.0938 5.2969,0.0391 4.6875,0.1719 4.0625,0.1719 2.5,0.1719 1.5781,-0.7422 0.6562,-1.6562 0.6562,-3.2188 q 0,-1.6093 0.875,-2.5546 0.875,-0.9454 2.3438,-0.9454 1.3281,0 2.1016,0.8516 Q 6.75,-5.0156 6.75,-3.5469 Z M 5.6719,-3.875 q -0.0157,-0.875 -0.5,-1.4062 -0.4844,-0.5313 -1.2813,-0.5313 -0.9062,0 -1.4453,0.5156 -0.5391,0.5157 -0.6172,1.4375 L 5.6719,-3.875 Z m 8.3047,-0.0938 0,3.9688 -1.0782,0 0,-3.9219 q 0,-0.9375 -0.3672,-1.3984 -0.3671,-0.4609 -1.0859,-0.4609 -0.875,0 -1.3828,0.5546 -0.5078,0.5547 -0.5078,1.5235 l 0,3.7031 -1.0781,0 0,-6.5625 1.0781,0 0,1.0156 q 0.3906,-0.5937 0.9141,-0.8828 0.5234,-0.2891 1.2109,-0.2891 1.125,0 1.7109,0.6954 0.586,0.6953 0.586,2.0546 z m 6.4648,0.6094 q 0,-1.1718 -0.4844,-1.8125 -0.4843,-0.6406 -1.3593,-0.6406 -0.8594,0 -1.3438,0.6406 -0.4844,0.6407 -0.4844,1.8125 0,1.1719 0.4844,1.8125 0.4844,0.6407 1.3438,0.6407 0.875,0 1.3593,-0.6407 0.4844,-0.6406 0.4844,-1.8125 z m 1.0781,2.5469 q 0,1.6719 -0.7422,2.4922 Q 20.0352,2.5 18.4883,2.5 17.9258,2.5 17.418,2.4141 16.9102,2.3281 16.4414,2.1562 l 0,-1.0468 q 0.4688,0.25 0.9375,0.375 0.4688,0.125 0.9375,0.125 1.0625,0 1.5938,-0.5547 Q 20.4414,0.5 20.4414,-0.625 l 0,-0.5312 Q 20.0977,-0.5781 19.582,-0.2891 19.0664,0 18.332,0 q -1.2031,0 -1.9453,-0.9219 -0.7422,-0.9219 -0.7422,-2.4375 0,-1.5156 0.7422,-2.4375 0.7422,-0.9219 1.9453,-0.9219 0.7344,0 1.25,0.2891 0.5157,0.2891 0.8594,0.8672 l 0,-1 1.0781,0 0,5.75 z m 2.211,-5.75 1.0781,0 0,6.5625 -1.0781,0 0,-6.5625 z m 0,-2.5625 1.0781,0 0,1.375 -1.0781,0 0,-1.375 z m 8.8027,5.1562 0,3.9688 -1.0781,0 0,-3.9219 q 0,-0.9375 -0.3672,-1.3984 -0.3672,-0.4609 -1.0859,-0.4609 -0.875,0 -1.3829,0.5546 -0.5078,0.5547 -0.5078,1.5235 l 0,3.7031 -1.0781,0 0,-6.5625 1.0781,0 0,1.0156 q 0.3907,-0.5937 0.9141,-0.8828 0.5234,-0.2891 1.2109,-0.2891 1.125,0 1.711,0.6954 0.5859,0.6953 0.5859,2.0546 z m 7.7617,0.4219 0,0.5157 -4.9687,0 q 0.0781,1.125 0.6797,1.7031 0.6015,0.5781 1.664,0.5781 0.625,0 1.211,-0.1484 0.5859,-0.1485 1.164,-0.461 l 0,1.0313 q -0.5937,0.2343 -1.2031,0.3672 -0.6094,0.1328 -1.2344,0.1328 -1.5625,0 -2.4844,-0.9141 -0.9218,-0.914 -0.9218,-2.4766 0,-1.6093 0.875,-2.5546 0.875,-0.9454 2.3437,-0.9454 1.3281,0 2.1016,0.8516 0.7734,0.8516 0.7734,2.3203 z M 39.2168,-3.875 q -0.0156,-0.875 -0.5,-1.4062 -0.4844,-0.5313 -1.2813,-0.5313 -0.9062,0 -1.4453,0.5156 -0.539,0.5157 -0.6172,1.4375 l 3.8438,-0.0156 z m 9.1973,-1.9375 q -0.8594,0 -1.3672,0.6797 -0.5078,0.6797 -0.5078,1.8516 0,1.1874 0.5,1.8593 0.5,0.6719 1.375,0.6719 0.8593,0 1.3671,-0.6797 0.5079,-0.6797 0.5079,-1.8515 0,-1.1563 -0.5079,-1.8438 -0.5078,-0.6875 -1.3671,-0.6875 z m 0,-0.9063 q 1.4062,0 2.2109,0.9141 0.8047,0.9141 0.8047,2.5235 0,1.6093 -0.8047,2.5312 -0.8047,0.9219 -2.2109,0.9219 -1.4063,0 -2.211,-0.9219 -0.8047,-0.9219 -0.8047,-2.5312 0,-1.6094 0.8047,-2.5235 0.8047,-0.9141 2.211,-0.9141 z m 8.123,-2.4062 0,0.9062 -1.0312,0 q -0.5782,0 -0.8047,0.2344 -0.2266,0.2344 -0.2266,0.8438 l 0,0.5781 1.7813,0 0,0.8437 -1.7813,0 0,5.7188 -1.0781,0 0,-5.7188 -1.0313,0 0,-0.8437 1.0313,0 0,-0.4531 q 0,-1.0938 0.5078,-1.6016 0.5078,-0.5078 1.6172,-0.5078 l 1.0156,0 z m 4.2246,0 0,0.9062 -1.0312,0 q -0.5782,0 -0.8047,0.2344 -0.2266,0.2344 -0.2266,0.8438 l 0,0.5781 1.7813,0 0,0.8437 -1.7813,0 0,5.7188 -1.0781,0 0,-5.7188 -1.0313,0 0,-0.8437 1.0313,0 0,-0.4531 q 0,-1.0938 0.5078,-1.6016 0.5078,-0.5078 1.6172,-0.5078 l 1.0156,0 z"
         style="stroke:none"
         id="path202"
         clip-path="url(#clipPath15)"
         inkscape:connector-curvature="0" />
    </g>
    <g
       style="font-family:sans-serif;text-rendering:optimizeLegibility"
       transform="matrix(1.3333,0,0,1.3333,23.4031,44.6667)"
       id="g204">
      <path
         d="M 848,148.5105 C 812,162 761,160 718.6694,146.3373"
         style="fill:none"
         id="path206"
         clip-path="url(#clipPath2)"
         inkscape:connector-curvature="0" />
      <line
         x1="718.66937"
         x2="730.40228"
         y1="146.3373"
         style="fill:none"
         y2="143.8195"
         id="line208"
         clip-path="url(#clipPath2)" />
      <line
         x1="718.66937"
         x2="726.71637"
         y1="146.3373"
         style="fill:none"
         y2="155.2394"
         id="line210"
         clip-path="url(#clipPath2)" />
    </g>
    <g
       style="font-family:sans-serif;text-rendering:optimizeLegibility"
       transform="matrix(1.3333,0,0,1.3333,828.60737,361.62451)"
       id="g212">
      <path
         d="m 1.0156,-2.5938 0,-3.9687 1.0782,0 0,3.9375 q 0,0.9219 0.3671,1.3906 0.3672,0.4688 1.086,0.4688 0.875,0 1.3828,-0.5547 0.5078,-0.5547 0.5078,-1.5235 l 0,-3.7187 1.0781,0 0,6.5625 -1.0781,0 0,-1.0156 q -0.3906,0.6094 -0.9063,0.8984 -0.5156,0.2891 -1.2031,0.2891 -1.1406,0 -1.7265,-0.7031 -0.586,-0.7032 -0.586,-2.0626 z m 2.7188,-4.125 0,0 z m 10.4648,2.75 0,3.9688 -1.0781,0 0,-3.9219 q 0,-0.9375 -0.3672,-1.3984 -0.3672,-0.4609 -1.0859,-0.4609 -0.875,0 -1.3828,0.5546 -0.5079,0.5547 -0.5079,1.5235 l 0,3.7031 -1.0781,0 0,-6.5625 1.0781,0 0,1.0156 q 0.3907,-0.5937 0.9141,-0.8828 0.5234,-0.2891 1.2109,-0.2891 1.125,0 1.711,0.6954 0.5859,0.6953 0.5859,2.0546 z m 2.1367,-5.1562 1.0782,0 0,9.125 -1.0782,0 0,-9.125 z m 5.8809,3.3125 q -0.8594,0 -1.3672,0.6797 -0.5078,0.6797 -0.5078,1.8516 0,1.1874 0.5,1.8593 0.5,0.6719 1.375,0.6719 0.8594,0 1.3672,-0.6797 0.5078,-0.6797 0.5078,-1.8515 0,-1.1563 -0.5078,-1.8438 -0.5078,-0.6875 -1.3672,-0.6875 z m 0,-0.9063 q 1.4062,0 2.2109,0.9141 0.8047,0.9141 0.8047,2.5235 0,1.6093 -0.8047,2.5312 -0.8047,0.9219 -2.2109,0.9219 -1.4063,0 -2.2109,-0.9219 -0.8047,-0.9219 -0.8047,-2.5312 0,-1.6094 0.8047,-2.5235 0.8046,-0.9141 2.2109,-0.9141 z m 9.5293,0.4063 0,1.0156 q -0.4688,-0.2656 -0.9219,-0.3906 -0.4531,-0.125 -0.9219,-0.125 -1.0625,0 -1.6406,0.6641 -0.5781,0.664 -0.5781,1.8672 0,1.2031 0.5781,1.8671 0.5781,0.6641 1.6406,0.6641 0.4688,0 0.9219,-0.125 Q 31.2773,-1 31.7461,-1.25 l 0,1 q -0.4531,0.2031 -0.9375,0.3125 -0.4844,0.1094 -1.0313,0.1094 -1.4843,0 -2.3593,-0.9297 -0.875,-0.9297 -0.875,-2.5234 0,-1.5938 0.8828,-2.5157 0.8828,-0.9219 2.4297,-0.9219 0.4843,0 0.9609,0.1016 0.4766,0.1016 0.9297,0.3047 z m 1.832,-2.8125 1.0781,0 0,5.3906 3.2188,-2.8281 1.375,0 L 35.7656,-3.5 39.4062,0 38,0 l -3.3438,-3.2031 0,3.2031 -1.0781,0 0,-9.125 z"
         style="stroke:none"
         id="path214"
         clip-path="url(#clipPath16)"
         inkscape:connector-curvature="0" />
    </g>
    <g
       style="font-family:sans-serif;text-rendering:optimizeLegibility"
       transform="matrix(1.3333,0,0,1.3333,23.4031,44.6667)"
       id="g216">
      <path
         d="M 654.8741,252 C 647,237 649,204 660.472,174.6694"
         style="fill:none"
         id="path218"
         clip-path="url(#clipPath2)"
         inkscape:connector-curvature="0" />
      <line
         x1="660.47198"
         x2="662.27429"
         y1="174.6694"
         style="fill:none"
         y2="186.53329"
         id="line220"
         clip-path="url(#clipPath2)" />
      <line
         x1="660.47198"
         x2="651.09869"
         y1="174.6694"
         style="fill:none"
         y2="182.1622"
         id="line222"
         clip-path="url(#clipPath2)" />
    </g>
    <g
       style="font-family:sans-serif;stroke-width:2;text-rendering:optimizeLegibility"
       transform="matrix(1.3333,0,0,1.3333,40.515606,67.154138)"
       id="g230" />
    <g
       transform="matrix(1.3333,0,0,1.3333,23.4031,44.6667)"
       style="font-family:sans-serif;fill:#ffffff;stroke:#ffffff;shape-rendering:crispEdges;text-rendering:geometricPrecision"
       id="g234" />
    <g
       style="font-family:sans-serif;fill:#010101;stroke:#010101;text-rendering:optimizeLegibility"
       transform="matrix(1.3333,0,0,1.3333,23.4031,44.6667)"
       id="g240">
      <ellipse
         style="stroke:none"
         rx="11.5"
         cx="82.5"
         ry="12"
         cy="61"
         id="ellipse242"
         clip-path="url(#clipPath2)" />
      <ellipse
         style="fill:none;stroke:#000000"
         rx="11.5"
         cx="82.5"
         ry="12"
         cy="61"
         id="ellipse244"
         clip-path="url(#clipPath2)" />
      <path
         d="M 4.9375,5.5762 Q 4.75,5.4824 4.5391,5.4277 4.3281,5.373 4.0625,5.373 3.1562,5.373 2.6641,5.9668 2.1719,6.5605 2.1719,7.6855 l 0,3.4532 -1.0781,0 0,-6.5625 1.0781,0 0,1.0156 Q 2.5156,4.998 3.0625,4.709 3.6094,4.4199 4.3906,4.4199 q 0.1094,0 0.2422,0.0156 0.1328,0.0157 0.2891,0.0469 l 0.0156,1.0938 z m 6.7461,2.0156 0,0.5156 -4.9688,0 q 0.0782,1.125 0.6797,1.7031 0.6016,0.5782 1.6641,0.5782 0.625,0 1.2109,-0.1485 0.586,-0.1484 1.1641,-0.4609 l 0,1.0312 q -0.5938,0.2344 -1.2031,0.3672 -0.6094,0.1328 -1.2344,0.1328 -1.5625,0 -2.4844,-0.914 -0.9219,-0.9141 -0.9219,-2.4766 0,-1.6094 0.875,-2.5547 0.875,-0.9453 2.3438,-0.9453 1.3281,0 2.1016,0.8516 0.7734,0.8515 0.7734,2.3203 z M 10.6055,7.2637 Q 10.5898,6.3887 10.1055,5.8574 9.6211,5.3262 8.8242,5.3262 7.918,5.3262 7.3789,5.8418 6.8398,6.3574 6.7617,7.2793 l 3.8438,-0.0156 z m 7.0234,-2.5 0,1.0312 Q 17.1758,5.5605 16.6836,5.4434 16.1914,5.3262 15.6602,5.3262 q -0.7969,0 -1.2032,0.2422 -0.4062,0.2421 -0.4062,0.7421 0,0.375 0.289,0.586 0.2891,0.2109 1.1641,0.3984 l 0.3594,0.0938 q 1.1562,0.2343 1.6406,0.6875 0.4844,0.4531 0.4844,1.25 0,0.9218 -0.7266,1.4531 -0.7265,0.5312 -1.9922,0.5312 -0.5312,0 -1.1015,-0.1015 -0.5703,-0.1016 -1.1953,-0.3047 l 0,-1.125 q 0.5937,0.3125 1.1718,0.4687 0.5782,0.1563 1.1563,0.1563 0.75,0 1.164,-0.2578 0.4141,-0.2578 0.4141,-0.7422 0,-0.4375 -0.2969,-0.6719 Q 16.2852,8.498 15.2852,8.2793 l -0.375,-0.0781 q -1,-0.2188 -1.4454,-0.6563 -0.4453,-0.4375 -0.4453,-1.1875 0,-0.9375 0.6563,-1.4375 0.6562,-0.5 1.8594,-0.5 0.5937,0 1.125,0.086 0.5312,0.0859 0.9687,0.2578 z m 7.6895,2.8281 0,0.5156 -4.9688,0 q 0.0781,1.125 0.6797,1.7031 0.6016,0.5782 1.6641,0.5782 0.625,0 1.2109,-0.1485 0.5859,-0.1484 1.1641,-0.4609 l 0,1.0312 q -0.5938,0.2344 -1.2032,0.3672 -0.6093,0.1328 -1.2343,0.1328 -1.5625,0 -2.4844,-0.914 -0.9219,-0.9141 -0.9219,-2.4766 0,-1.6094 0.875,-2.5547 0.875,-0.9453 2.3438,-0.9453 1.3281,0 2.1015,0.8516 0.7735,0.8515 0.7735,2.3203 z M 24.2402,7.2637 q -0.0156,-0.875 -0.5,-1.4063 -0.4843,-0.5312 -1.2812,-0.5312 -0.9063,0 -1.4453,0.5156 -0.5391,0.5156 -0.6172,1.4375 L 24.2402,7.2637 Z M 30.8887,5.5762 Q 30.7012,5.4824 30.4902,5.4277 30.2793,5.373 30.0137,5.373 q -0.9063,0 -1.3985,0.5938 -0.4922,0.5937 -0.4922,1.7187 l 0,3.4532 -1.0781,0 0,-6.5625 1.0781,0 0,1.0156 q 0.3438,-0.5938 0.8907,-0.8828 0.5468,-0.2891 1.3281,-0.2891 0.1094,0 0.2422,0.0156 0.1328,0.0157 0.289,0.0469 l 0.0157,1.0938 z m 0.3554,-1 1.1407,0 2.0468,5.5 2.0625,-5.5 1.1407,0 -2.4688,6.5625 -1.4687,0 -2.4532,-6.5625 z m 10.8516,3.2656 q -1.2969,0 -1.8047,0.2969 -0.5078,0.2968 -0.5078,1.0156 0,0.5781 0.3828,0.9141 0.3828,0.3359 1.0235,0.3359 0.9062,0 1.4453,-0.6328 0.539,-0.6328 0.539,-1.6953 l 0,-0.2344 -1.0781,0 z m 2.1563,-0.4531 0,3.75 -1.0782,0 0,-1 q -0.375,0.5937 -0.9218,0.8828 -0.5469,0.289 -1.3438,0.289 -1.0156,0 -1.6094,-0.5703 -0.5937,-0.5703 -0.5937,-1.5078 0,-1.1094 0.7422,-1.6719 0.7422,-0.5625 2.2109,-0.5625 l 1.5156,0 0,-0.1093 q 0,-0.75 -0.4922,-1.1563 -0.4921,-0.4062 -1.3671,-0.4062 -0.5625,0 -1.1016,0.1406 -0.5391,0.1406 -1.0234,0.4062 l 0,-1 q 0.5937,-0.2343 1.1484,-0.3437 0.5547,-0.1094 1.0859,-0.1094 1.4219,0 2.125,0.7344 0.7032,0.7344 0.7032,2.2344 z m 3.291,-4.6719 0,1.8594 2.2187,0 0,0.8437 -2.2187,0 0,3.5625 q 0,0.7969 0.2187,1.0235 0.2188,0.2265 0.8906,0.2265 l 1.1094,0 0,0.9063 -1.1094,0 q -1.25,0 -1.7265,-0.4688 -0.4766,-0.4687 -0.4766,-1.6875 l 0,-3.5625 -0.7812,0 0,-0.8437 0.7812,0 0,-1.8594 1.0938,0 z m 3.6269,1.8594 1.0781,0 0,6.5625 -1.0781,0 0,-6.5625 z m 0,-2.5625 1.0781,0 0,1.375 -1.0781,0 0,-1.375 z m 5.8809,3.3125 q -0.8594,0 -1.3672,0.6797 -0.5078,0.6796 -0.5078,1.8515 0,1.1875 0.5,1.8594 0.5,0.6719 1.375,0.6719 0.8594,0 1.3672,-0.6797 0.5078,-0.6797 0.5078,-1.8516 0,-1.1562 -0.5078,-1.8437 -0.5078,-0.6875 -1.3672,-0.6875 z m 0,-0.9063 q 1.4062,0 2.2109,0.9141 0.8047,0.914 0.8047,2.5234 0,1.6094 -0.8047,2.5313 -0.8047,0.9218 -2.2109,0.9218 -1.4063,0 -2.211,-0.9218 -0.8046,-0.9219 -0.8046,-2.5313 0,-1.6094 0.8046,-2.5234 0.8047,-0.9141 2.211,-0.9141 z m 10.2637,2.75 0,3.9688 -1.0782,0 0,-3.9219 q 0,-0.9375 -0.3672,-1.3984 -0.3671,-0.461 -1.0859,-0.461 -0.875,0 -1.3828,0.5547 -0.5078,0.5547 -0.5078,1.5234 l 0,3.7032 -1.0781,0 0,-6.5625 1.0781,0 0,1.0156 q 0.3906,-0.5938 0.914,-0.8828 0.5235,-0.2891 1.211,-0.2891 1.125,0 1.7109,0.6953 0.586,0.6953 0.586,2.0547 z M 78,4.8262 78,5.8418 Q 77.5312,5.5762 77.0781,5.4512 76.625,5.3262 76.1562,5.3262 q -1.0624,0 -1.6406,0.664 -0.5781,0.6641 -0.5781,1.8672 0,1.2031 0.5781,1.8672 0.5782,0.6641 1.6406,0.6641 0.4688,0 0.9219,-0.125 0.4531,-0.125 0.9219,-0.375 l 0,1 q -0.4531,0.2031 -0.9375,0.3125 -0.4844,0.1093 -1.0313,0.1093 -1.4843,0 -2.3593,-0.9296 -0.875,-0.9297 -0.875,-2.5235 0,-1.5937 0.8828,-2.5156 0.8828,-0.9219 2.4297,-0.9219 0.4844,0 0.9609,0.1016 Q 77.5469,4.623 78,4.8262 Z m 4.8477,3.0156 q -1.2969,0 -1.8047,0.2969 -0.5078,0.2968 -0.5078,1.0156 0,0.5781 0.3828,0.9141 0.3828,0.3359 1.0234,0.3359 0.9063,0 1.4453,-0.6328 0.5391,-0.6328 0.5391,-1.6953 l 0,-0.2344 -1.0781,0 z m 2.1562,-0.4531 0,3.75 -1.0781,0 0,-1 q -0.375,0.5937 -0.9219,0.8828 -0.5469,0.289 -1.3437,0.289 -1.0157,0 -1.6094,-0.5703 -0.5938,-0.5703 -0.5938,-1.5078 0,-1.1094 0.7422,-1.6719 0.7422,-0.5625 2.211,-0.5625 l 1.5156,0 0,-0.1093 q 0,-0.75 -0.4922,-1.1563 -0.4922,-0.4062 -1.3672,-0.4062 -0.5625,0 -1.1016,0.1406 -0.539,0.1406 -1.0234,0.4062 l 0,-1 q 0.5938,-0.2343 1.1484,-0.3437 0.5547,-0.1094 1.086,-0.1094 1.4219,0 2.125,0.7344 0.7031,0.7344 0.7031,2.2344 z m 7.6816,-0.2188 0,3.9688 -1.0781,0 0,-3.9219 q 0,-0.9375 -0.3672,-1.3984 -0.3672,-0.461 -1.0859,-0.461 -0.875,0 -1.3828,0.5547 -0.5078,0.5547 -0.5078,1.5234 l 0,3.7032 -1.0782,0 0,-6.5625 1.0782,0 0,1.0156 q 0.3906,-0.5938 0.914,-0.8828 0.5235,-0.2891 1.211,-0.2891 1.125,0 1.7109,0.6953 0.5859,0.6953 0.5859,2.0547 z m 6.8711,-2.3437 0,1.0156 q -0.4687,-0.2656 -0.9218,-0.3906 -0.4532,-0.125 -0.9219,-0.125 -1.0625,0 -1.6406,0.664 -0.5782,0.6641 -0.5782,1.8672 0,1.2031 0.5782,1.8672 0.5781,0.6641 1.6406,0.6641 0.4687,0 0.9219,-0.125 0.4531,-0.125 0.9218,-0.375 l 0,1 q -0.4531,0.2031 -0.9375,0.3125 -0.4843,0.1093 -1.0312,0.1093 -1.4844,0 -2.3594,-0.9296 -0.875,-0.9297 -0.875,-2.5235 0,-1.5937 0.8828,-2.5156 0.8828,-0.9219 2.4297,-0.9219 0.4844,0 0.961,0.1016 0.4765,0.1015 0.9296,0.3047 z m 7.4883,2.7656 0,0.5156 -4.9687,0 q 0.0781,1.125 0.6797,1.7031 0.6015,0.5782 1.664,0.5782 0.625,0 1.211,-0.1485 0.5859,-0.1484 1.164,-0.4609 l 0,1.0312 q -0.5937,0.2344 -1.2031,0.3672 -0.6094,0.1328 -1.2344,0.1328 -1.5625,0 -2.4844,-0.914 -0.9218,-0.9141 -0.9218,-2.4766 0,-1.6094 0.875,-2.5547 0.875,-0.9453 2.3437,-0.9453 1.3281,0 2.1016,0.8516 0.7734,0.8515 0.7734,2.3203 z m -1.0781,-0.3281 q -0.0156,-0.875 -0.5,-1.4063 -0.4844,-0.5312 -1.2813,-0.5312 -0.9062,0 -1.4453,0.5156 -0.539,0.5156 -0.6172,1.4375 l 3.8438,-0.0156 z m 2.8359,-5.25 1.0782,0 0,9.125 -1.0782,0 0,-9.125 z m 8.959,5.5781 0,0.5156 -4.9687,0 q 0.0781,1.125 0.6797,1.7031 0.6015,0.5782 1.664,0.5782 0.625,0 1.211,-0.1485 0.5859,-0.1484 1.164,-0.4609 l 0,1.0312 q -0.5937,0.2344 -1.2031,0.3672 -0.6094,0.1328 -1.2344,0.1328 -1.5625,0 -2.4844,-0.914 -0.9218,-0.9141 -0.9218,-2.4766 0,-1.6094 0.875,-2.5547 0.875,-0.9453 2.3437,-0.9453 1.3281,0 2.1016,0.8516 0.7734,0.8515 0.7734,2.3203 z m -1.0781,-0.3281 q -0.0156,-0.875 -0.5,-1.4063 -0.4844,-0.5312 -1.2813,-0.5312 -0.9062,0 -1.4453,0.5156 -0.539,0.5156 -0.6172,1.4375 l 3.8438,-0.0156 z m 7.1641,-1.6875 0,-3.5625 1.0781,0 0,9.125 -1.0781,0 0,-0.9844 q -0.3438,0.5781 -0.8594,0.8672 -0.5156,0.289 -1.25,0.289 -1.1875,0 -1.9375,-0.9531 -0.75,-0.9531 -0.75,-2.5 0,-1.5469 0.75,-2.4922 0.75,-0.9453 1.9375,-0.9453 0.7344,0 1.25,0.2813 0.5156,0.2812 0.8594,0.875 z m -3.6719,2.2812 q 0,1.1875 0.4844,1.8672 0.4843,0.6797 1.3437,0.6797 0.8594,0 1.3516,-0.6797 0.4922,-0.6797 0.4922,-1.8672 0,-1.1875 -0.4922,-1.8594 -0.4922,-0.6718 -1.3516,-0.6718 -0.8594,0 -1.3437,0.6718 -0.4844,0.6719 -0.4844,1.8594 z"
         style="fill:#000000;stroke:none"
         transform="translate(257,163.5)"
         id="path246"
         clip-path="url(#clipPath18)"
         inkscape:connector-curvature="0" />
    </g>
    <g
       style="font-family:sans-serif;text-rendering:optimizeLegibility"
       transform="matrix(1.3333,0,0,1.3333,23.4031,44.6667)"
       id="g248">
      <path
         d="m 87.6694,64.9718 c 41.3306,33.7258 0,0 41.3306,33.7258"
         style="fill:none"
         id="path250"
         clip-path="url(#clipPath2)"
         inkscape:connector-curvature="0" />
      <line
         x1="129"
         x2="117.1548"
         y1="98.697601"
         style="fill:none"
         y2="96.776001"
         id="line252"
         clip-path="url(#clipPath2)" />
      <line
         x1="129"
         x2="124.7415"
         y1="98.697601"
         style="fill:none"
         y2="87.4786"
         id="line254"
         clip-path="url(#clipPath2)" />
    </g>
  </g>
</svg>
